<svg width="480" height="289" viewBox="0 0 480 289" fill="none" xmlns="http://www.w3.org/2000/svg">
<g clip-path="url(#clip0)">
<path d="M33.1826 271.178L61.4919 230.463L33.1682 275.607L33.1517 280.24C31.1329 280.223 29.1345 280.157 27.1565 280.042C27.1475 278.99 29.5537 221.117 29.4514 220.07C29.591 220.03 29.6694 214.596 29.7248 214.358L0.149902 169.865L29.7565 210.147L29.8448 211.338L31.6012 166.374L6.17845 120.329L31.8023 158.473C31.8118 157.861 33.0151 65.5399 33.027 64.9702C33.0342 65.2728 33.5865 138.44 33.5905 138.748L57.9044 109.298L33.5672 145.077L33.4429 185.319L56.0059 146.404C27.8475 203.156 34.0791 183.296 33.3599 213.613L66.1341 159.426L33.3319 221.419L33.1826 271.178Z" fill="#D0CDE1"/>
<path d="M466.268 276.706L478.066 259.739L466.262 278.551L466.256 280.482C465.414 280.475 464.582 280.447 463.757 280.4C463.753 279.961 464.756 255.844 464.714 255.408C464.772 255.391 464.804 253.127 464.828 253.028L452.503 234.486L464.841 251.273L464.878 251.769L465.609 233.031L455.015 213.843L465.693 229.739C465.697 229.484 466.199 191.011 466.204 190.774C466.207 190.9 466.437 221.391 466.438 221.519L476.571 209.246L466.429 224.156L466.377 240.926L475.78 224.71C464.045 248.359 466.642 240.083 466.342 252.717L480 230.136L466.331 255.97L466.268 276.706Z" fill="#D0CDE1"/>
<path d="M239.215 289C371.33 289 478.431 284.8 478.431 279.618C478.431 274.437 371.33 270.237 239.215 270.237C107.1 270.237 0 274.437 0 279.618C0 284.8 107.1 289 239.215 289Z" fill="#D0CDE1"/>
<path d="M355.253 110.807H82.1187V273.811H355.253V110.807Z" fill="#3F3D56"/>
<path d="M149.715 110.807C149.436 127.96 142.433 144.316 130.217 156.347C118.001 168.379 101.55 175.123 84.4126 175.125C83.645 175.125 82.8818 175.112 82.1187 175.085V110.807H149.715Z" fill="#6C63FF"/>
<path d="M232.046 273.811H206.069C207.046 271.15 208.816 268.854 211.139 267.231C213.461 265.609 216.225 264.739 219.058 264.739C221.89 264.739 224.654 265.609 226.977 267.231C229.299 268.854 231.069 271.15 232.046 273.811Z" fill="#6C63FF"/>
<path d="M355.253 189.497V244.402C348.211 244.057 341.572 241.015 336.71 235.904C331.848 230.794 329.136 224.007 329.136 216.949C329.136 209.892 331.848 203.105 336.71 197.995C341.572 192.884 348.211 189.841 355.253 189.497Z" fill="#6C63FF"/>
<path d="M305.075 170.038H132.769C128.325 170.038 124.722 173.645 124.722 178.094V178.094C124.722 182.543 128.325 186.149 132.769 186.149H305.075C309.52 186.149 313.123 182.543 313.123 178.094C313.123 173.645 309.52 170.038 305.075 170.038Z" fill="white"/>
<path d="M305.075 201.786H132.769C128.325 201.786 124.722 205.393 124.722 209.842V209.842C124.722 214.29 128.325 217.897 132.769 217.897H305.075C309.52 217.897 313.123 214.29 313.123 209.842C313.123 205.393 309.52 201.786 305.075 201.786Z" fill="white"/>
<path d="M305.075 233.534H255.116C250.672 233.534 247.069 237.14 247.069 241.589C247.069 246.038 250.672 249.644 255.116 249.644H305.075C309.52 249.644 313.123 246.038 313.123 241.589C313.123 237.14 309.52 233.534 305.075 233.534Z" fill="white"/>
<path d="M398.567 50.0891C398.567 50.0891 406.077 53.0128 406.495 62.6194C406.912 72.2259 404.408 98.9573 404.408 98.9573C404.408 98.9573 413.588 112.323 406.495 116.082C399.401 119.841 398.567 101.046 398.567 101.046L390.222 61.3663C390.222 61.3663 395.229 49.6714 398.567 50.0891Z" fill="#A0616A"/>
<path d="M321.792 80.9972C321.792 80.9972 303.85 92.6921 303.015 83.5032C302.181 74.3144 308.439 38.3941 308.439 38.3941C308.439 38.3941 309.274 22.9401 318.036 26.6992C326.799 30.4583 315.533 43.4063 315.533 43.4063L316.785 72.6437L325.13 72.226L321.792 80.9972Z" fill="#A0616A"/>
<path d="M350.582 91.8566C350.582 91.8566 295.504 71.3905 298.425 95.1981C301.346 119.006 315.533 149.078 315.533 149.078L320.54 157.014H330.971L324.295 113.994C324.295 113.994 348.079 127.359 355.172 125.271C355.172 125.271 364.352 186.669 367.69 191.264C371.028 195.858 376.87 251.409 376.87 251.409L382.294 258.092H392.725V164.115C392.725 164.115 410.667 105.64 396.898 102.716C383.128 99.7925 350.582 91.8566 350.582 91.8566Z" fill="black"/>
<path d="M319.288 151.585C319.288 151.585 316.784 146.99 312.612 151.585C308.439 156.179 298.425 161.609 298.425 161.609C298.425 161.609 276.728 166.621 294.252 170.798C311.777 174.975 313.864 170.798 313.864 170.798C313.864 170.798 316.784 171.633 319.288 172.469C321.791 173.304 338.064 170.38 338.064 167.874C338.064 165.368 332.54 150.391 330.295 152.659C328.05 154.926 319.288 151.585 319.288 151.585Z" fill="#323232"/>
<path d="M383.094 253.958C383.094 253.958 376.941 248.886 375.494 250.335C374.046 251.784 366.446 261.565 366.446 261.565C366.446 261.565 346.18 277.143 364.637 279.679C383.094 282.214 382.008 275.331 382.008 275.331H387.798C388.522 275.331 398.293 270.984 397.931 269.173C397.569 267.362 393.227 252.592 391.779 253.637C390.331 254.682 383.094 253.958 383.094 253.958Z" fill="#323232"/>
<path d="M327.216 34.2172C335.051 34.2172 341.403 27.8592 341.403 20.0162C341.403 12.1732 335.051 5.81519 327.216 5.81519C319.381 5.81519 313.029 12.1732 313.029 20.0162C313.029 27.8592 319.381 34.2172 327.216 34.2172Z" fill="#A0616A"/>
<path d="M337.23 18.3457C337.23 18.3457 348.079 27.5346 355.589 27.5346C363.1 27.5346 344.741 44.6594 344.741 44.6594L328.468 30.0407L337.23 18.3457Z" fill="#A0616A"/>
<path d="M341.403 44.6594L341.078 41.3688C341.078 41.3688 349.331 26.6993 351.834 25.4463C354.338 24.1932 356.007 24.1932 356.007 24.1932C356.007 24.1932 364.352 15.422 373.532 20.0164C382.711 24.6109 404.409 53.8483 404.409 53.8483C404.409 53.8483 388.97 55.1013 391.056 67.2139C391.056 67.2139 406.495 106.893 402.322 107.311C398.15 107.729 385.632 104.805 372.697 110.652C359.762 116.5 353.92 112.741 353.92 112.741L347.244 91.0215C347.244 91.0215 334.727 83.921 335.144 77.6559L316.993 85.8006L318.662 70.3465L329.72 57.6074C329.72 57.6074 327.633 55.9367 341.403 44.6594Z" fill="#575A89"/>
<path d="M314.166 21.5516C313.602 22.1789 312.895 22.6607 312.106 22.9561C311.298 23.1842 310.28 22.9044 309.958 22.1283L310.558 21.3468L308.759 20.2282L309.543 19.3078L308.094 17.7334L309.238 16.8254L307.061 15.2671C309.882 10.6591 312.933 5.99336 317.387 2.93867C321.841 -0.116011 328.065 -1.20145 332.627 1.68787C334.996 3.18796 336.671 5.56886 338.013 8.03244C340.712 12.987 343.09 17.8165 343.442 23.4486C341.746 21.7962 339.272 20.8651 337.577 19.2127C336.826 18.4154 335.975 17.7186 335.046 17.1395C333.273 16.1387 331.152 16.0501 329.167 15.5987C327.498 15.219 326.415 14.466 325.153 13.3895C323.65 12.1088 323.589 12.604 322.072 14.0459C319.439 16.5496 316.803 19.0515 314.166 21.5516Z" fill="#FAF0BE"/>
</g>
<defs>
<clipPath id="clip0">
<rect width="480" height="289" fill="white"/>
</clipPath>
</defs>
</svg>
