<svg id="svg" version="1.1" xmlns="http://www.w3.org/2000/svg" xmlns:xlink="http://www.w3.org/1999/xlink" width="400" height="70.42808525882143" viewBox="0, 0, 400,70.42808525882143"><g id="svgg"><path id="path0" d="M124.917 26.888 C 124.108 27.154,120.167 29.630,120.167 29.873 C 120.167 29.968,120.491 30.542,120.887 31.148 C 121.283 31.754,122.677 33.918,123.985 35.956 C 126.227 39.449,126.384 39.651,126.721 39.471 C 130.885 37.243,132.584 35.169,132.570 32.333 C 132.551 28.603,128.491 25.715,124.917 26.888 M127.766 30.151 C 129.740 31.047,129.799 33.757,127.870 34.874 L 127.367 35.166 126.007 33.063 C 124.503 30.740,124.497 30.701,125.527 30.191 C 126.408 29.755,126.877 29.747,127.766 30.151 M5.048 30.232 C -0.071 31.903,-0.696 38.630,4.036 41.119 C 6.435 42.380,10.148 41.268,11.540 38.870 L 11.830 38.371 9.490 36.833 C 8.203 35.987,7.128 35.322,7.102 35.356 C 5.882 36.909,5.847 37.153,6.758 37.728 C 7.633 38.281,7.640 38.599,6.778 38.547 C 3.401 38.344,3.262 33.337,6.633 33.334 C 7.737 33.333,9.167 34.334,9.167 35.107 C 9.167 35.264,9.274 35.325,9.458 35.273 C 9.619 35.227,10.331 35.065,11.042 34.911 C 12.508 34.595,12.581 34.472,11.988 33.310 C 10.721 30.826,7.544 29.417,5.048 30.232 M114.127 33.715 C 112.134 35.018,110.503 36.131,110.502 36.190 C 110.501 36.249,111.598 37.974,112.940 40.023 C 114.282 42.073,115.706 44.256,116.105 44.874 L 116.830 45.999 117.663 45.458 C 118.122 45.160,119.810 44.064,121.415 43.022 C 123.020 41.980,124.333 41.084,124.333 41.032 C 124.333 40.716,122.599 38.355,122.439 38.452 C 122.335 38.515,121.300 39.189,120.139 39.950 C 117.755 41.512,117.810 41.493,117.412 40.886 C 117.064 40.355,117.122 40.295,119.322 38.917 C 120.876 37.942,120.841 38.047,120.042 36.806 C 119.284 35.631,119.589 35.607,117.500 37.003 L 115.750 38.172 115.376 37.711 C 114.858 37.073,114.757 37.188,117.253 35.578 C 120.002 33.806,119.859 34.067,118.890 32.577 C 117.893 31.045,118.398 30.924,114.127 33.715 M15.791 35.958 C 15.393 36.577,14.520 37.946,13.853 39.000 C 13.186 40.054,12.121 41.725,11.487 42.712 C 10.852 43.700,10.333 44.573,10.333 44.652 C 10.333 44.791,17.398 49.373,17.745 49.459 C 17.918 49.502,19.500 47.198,19.500 46.903 C 19.500 46.816,18.450 46.075,17.167 45.256 C 15.883 44.437,14.833 43.724,14.833 43.671 C 14.833 43.594,15.200 42.996,15.436 42.689 C 15.462 42.655,16.262 43.124,17.213 43.731 C 18.165 44.337,19.026 44.833,19.126 44.833 C 19.308 44.833,20.591 42.863,20.476 42.760 C 20.444 42.731,19.648 42.211,18.708 41.606 C 16.922 40.455,16.823 40.322,17.299 39.704 L 17.591 39.325 19.982 40.845 C 22.683 42.562,22.379 42.566,23.467 40.806 C 23.982 39.974,24.103 39.656,23.952 39.535 C 23.650 39.294,16.659 34.833,16.582 34.833 C 16.546 34.833,16.190 35.340,15.791 35.958 M106.083 39.272 C 104.892 40.048,102.998 41.277,101.875 42.002 L 99.833 43.321 100.458 44.285 C 100.803 44.816,101.208 45.425,101.359 45.638 L 101.633 46.027 103.438 44.857 C 105.531 43.502,105.494 43.489,105.498 45.583 C 105.504 48.545,105.722 53.333,105.851 53.333 C 105.981 53.333,113.960 48.257,114.217 48.011 C 114.413 47.823,112.665 45.148,112.437 45.287 C 112.334 45.350,111.512 45.879,110.610 46.463 C 109.708 47.048,108.930 47.486,108.882 47.437 C 108.811 47.367,108.545 40.910,108.508 38.375 C 108.498 37.672,108.593 37.636,106.083 39.272 M25.420 42.438 C 24.502 43.949,24.503 43.953,25.903 44.736 C 27.225 45.476,27.377 44.817,24.917 49.013 C 23.771 50.967,22.833 52.620,22.833 52.685 C 22.833 52.793,25.381 54.333,25.559 54.333 C 25.599 54.333,26.548 52.758,27.667 50.832 C 30.076 46.687,29.740 46.973,31.202 47.820 C 31.853 48.196,32.400 48.485,32.418 48.460 C 32.448 48.421,33.798 46.069,33.942 45.805 C 34.000 45.699,32.425 44.732,28.125 42.233 C 27.116 41.647,26.268 41.167,26.241 41.167 C 26.214 41.167,25.844 41.739,25.420 42.438 M95.833 45.747 C 95.146 46.156,94.583 46.551,94.583 46.624 C 94.583 46.697,95.884 48.988,97.474 51.715 L 100.365 56.675 101.477 56.046 C 102.089 55.700,102.729 55.333,102.899 55.232 C 103.191 55.057,100.589 50.245,97.795 45.792 C 97.196 44.837,97.357 44.841,95.833 45.747 M91.175 48.019 C 89.540 48.772,89.570 48.575,90.713 51.005 C 91.271 52.191,91.695 53.193,91.655 53.231 C 91.616 53.269,90.571 53.079,89.333 52.810 C 85.609 52.001,83.805 51.648,83.660 51.700 C 83.517 51.752,83.733 52.223,86.802 58.539 L 88.643 62.328 89.946 61.721 C 90.663 61.386,91.319 61.052,91.403 60.978 C 91.492 60.900,91.127 59.942,90.528 58.686 C 89.963 57.499,89.500 56.484,89.500 56.431 C 89.500 56.235,90.223 56.348,93.649 57.083 C 95.572 57.496,97.259 57.833,97.399 57.833 C 97.654 57.833,97.538 57.574,93.939 50.125 C 93.241 48.681,92.576 47.506,92.460 47.512 C 92.345 47.519,91.766 47.747,91.175 48.019 M42.289 50.848 C 38.012 51.856,36.355 57.495,39.435 60.562 C 42.002 63.117,45.789 63.068,48.080 60.451 C 51.843 56.153,47.854 49.537,42.289 50.848 M50.704 58.543 C 50.036 61.590,49.493 64.160,49.495 64.254 C 49.499 64.397,51.904 65.000,52.468 65.000 C 52.564 65.000,52.736 64.582,52.851 64.072 C 53.034 63.252,53.099 63.154,53.404 63.240 C 53.594 63.294,54.068 63.384,54.457 63.441 C 55.307 63.566,55.398 63.668,55.662 64.792 C 55.905 65.832,55.834 65.779,57.517 66.181 C 59.085 66.555,59.565 66.582,59.461 66.292 C 59.419 66.177,59.209 65.398,58.993 64.560 L 58.600 63.036 59.466 62.089 C 61.612 59.741,61.121 56.153,58.441 54.591 C 57.821 54.230,52.997 52.999,52.211 53.001 C 51.960 53.002,51.739 53.813,50.704 58.543 M78.000 53.830 C 78.000 53.935,77.734 55.572,77.409 57.469 C 77.084 59.365,76.635 62.004,76.410 63.333 C 76.186 64.662,75.961 65.928,75.910 66.145 C 75.804 66.595,75.813 66.594,77.870 65.974 C 78.922 65.658,78.997 65.602,79.097 65.068 C 79.200 64.522,79.257 64.483,80.560 64.091 C 82.900 63.387,82.844 63.391,83.265 63.918 L 83.639 64.388 85.028 64.000 C 85.792 63.788,86.475 63.582,86.547 63.544 C 86.618 63.505,86.312 63.049,85.865 62.529 C 78.321 53.748,78.000 53.393,78.000 53.830 M45.002 54.375 C 47.786 56.270,45.479 60.353,42.487 58.827 C 40.750 57.941,40.685 55.362,42.373 54.332 C 43.128 53.873,44.291 53.892,45.002 54.375 M66.477 55.418 C 62.279 56.765,60.956 62.097,64.052 65.192 C 67.602 68.742,73.475 66.542,73.799 61.542 L 73.877 60.333 71.022 60.333 L 68.167 60.333 68.167 61.397 L 68.167 62.461 69.259 62.578 C 70.466 62.707,70.503 62.973,69.380 63.442 C 67.564 64.202,65.666 63.004,65.667 61.100 C 65.669 59.044,67.771 57.803,69.485 58.848 L 70.053 59.194 71.150 58.097 C 72.456 56.790,72.440 56.689,70.780 55.850 C 69.441 55.173,67.765 55.005,66.477 55.418 M56.199 57.184 C 57.897 57.617,57.832 60.333,56.124 60.333 C 55.255 60.333,53.833 59.952,53.833 59.720 C 53.833 59.509,54.262 57.579,54.432 57.028 C 54.501 56.802,54.806 56.829,56.199 57.184 M81.285 61.895 C 81.245 62.015,80.008 62.484,79.693 62.497 C 79.613 62.501,79.852 60.783,79.955 60.610 C 80.061 60.432,81.356 61.683,81.285 61.895 " stroke="none" fill="#e2e2e2" fill-rule="evenodd"></path><path id="path1" d="M0.000 20.075 L 0.000 40.151 0.738 40.659 C 1.144 40.938,1.512 41.167,1.555 41.167 C 1.598 41.167,2.006 41.410,2.462 41.708 C 2.918 42.006,4.018 42.700,4.907 43.250 C 5.796 43.800,7.194 44.681,8.015 45.208 C 8.835 45.735,9.554 46.167,9.612 46.167 C 9.671 46.167,9.951 46.339,10.234 46.549 C 10.518 46.759,11.313 47.262,12.000 47.667 C 12.688 48.071,13.482 48.574,13.766 48.785 C 14.049 48.995,14.337 49.167,14.405 49.167 C 14.473 49.167,14.841 49.376,15.223 49.631 C 15.604 49.886,16.067 50.185,16.250 50.295 C 16.569 50.486,18.391 51.614,19.077 52.045 C 19.538 52.334,20.593 52.963,21.219 53.322 C 21.511 53.489,22.238 53.907,22.833 54.250 C 25.838 55.983,30.931 58.627,33.917 60.006 C 37.159 61.503,39.077 62.333,39.292 62.333 C 39.384 62.333,39.881 62.520,40.397 62.748 C 42.437 63.651,49.837 66.043,51.457 66.324 C 51.893 66.400,53.112 66.653,54.167 66.888 C 60.481 68.294,69.349 68.760,74.250 67.942 C 75.075 67.804,76.313 67.600,77.000 67.488 C 77.688 67.376,78.962 67.103,79.833 66.881 C 80.704 66.659,81.717 66.410,82.083 66.329 C 83.479 66.017,87.324 64.620,90.333 63.330 C 92.220 62.521,98.663 59.213,100.833 57.938 C 106.104 54.843,107.917 53.680,119.324 46.081 C 123.592 43.238,127.683 40.528,128.417 40.060 C 131.480 38.103,132.181 37.665,134.167 36.472 C 138.306 33.986,140.365 32.832,143.500 31.243 C 158.674 23.552,171.773 22.572,189.833 27.776 C 190.612 28.001,192.037 28.412,193.000 28.689 C 194.599 29.151,205.242 32.585,208.417 33.665 C 209.800 34.135,211.943 34.814,214.667 35.645 C 215.537 35.910,216.889 36.323,217.670 36.562 C 218.451 36.800,219.426 37.067,219.837 37.153 C 220.247 37.240,221.296 37.498,222.167 37.726 C 224.741 38.401,228.239 39.166,228.763 39.169 C 229.031 39.171,230.037 39.314,231.000 39.488 C 235.561 40.313,243.685 40.404,248.083 39.680 C 249.275 39.484,250.775 39.249,251.417 39.157 C 254.086 38.775,261.673 36.851,264.917 35.735 C 265.558 35.514,266.458 35.229,266.917 35.102 C 267.919 34.825,274.947 32.379,278.917 30.926 C 279.833 30.591,280.883 30.215,281.250 30.091 C 281.617 29.967,282.779 29.557,283.833 29.179 C 287.205 27.972,295.447 25.297,296.417 25.095 C 296.692 25.037,297.554 24.809,298.333 24.587 C 313.516 20.268,328.025 21.277,341.767 27.608 C 342.234 27.824,342.662 28.000,342.716 28.000 C 343.320 28.000,352.798 33.071,356.167 35.197 C 356.762 35.573,357.400 35.964,357.583 36.066 C 357.767 36.169,359.042 37.007,360.417 37.930 C 362.705 39.465,363.725 40.167,364.997 41.083 C 365.252 41.267,365.825 41.675,366.272 41.991 C 366.718 42.307,367.552 42.927,368.124 43.369 C 368.697 43.811,369.784 44.634,370.541 45.198 C 371.298 45.763,372.188 46.455,372.520 46.737 C 372.851 47.019,373.373 47.438,373.679 47.667 C 374.568 48.333,376.638 50.042,380.234 53.080 C 382.076 54.636,383.765 56.061,383.987 56.246 C 384.209 56.432,384.510 56.696,384.657 56.833 C 384.803 56.971,385.747 57.794,386.753 58.662 C 388.721 60.360,389.387 60.940,389.817 61.333 C 389.967 61.471,390.914 62.294,391.920 63.162 C 394.086 65.030,394.581 65.467,395.059 65.930 C 395.256 66.120,396.242 66.981,397.250 67.842 C 398.258 68.704,399.121 69.448,399.167 69.496 C 399.212 69.544,399.419 69.726,399.625 69.901 L 400.000 70.218 400.000 35.109 L 400.000 0.000 200.000 0.000 L 0.000 0.000 0.000 20.075 M129.250 26.983 C 133.063 28.738,134.013 33.794,131.081 36.726 C 130.403 37.404,126.724 39.833,126.375 39.833 C 126.286 39.833,125.912 39.365,125.543 38.792 C 121.483 32.480,119.956 30.079,119.886 29.896 C 119.808 29.694,121.357 28.599,123.565 27.296 C 125.372 26.229,127.373 26.119,129.250 26.983 M8.847 30.224 C 10.863 31.053,13.238 33.978,12.503 34.727 C 12.390 34.843,9.774 35.468,9.295 35.493 C 9.228 35.497,9.021 35.201,8.834 34.836 C 7.998 33.197,5.524 33.094,4.610 34.661 C 3.715 36.194,4.698 38.061,6.514 38.279 L 7.250 38.367 6.583 37.910 C 6.217 37.659,5.855 37.399,5.780 37.332 C 5.621 37.190,6.750 35.355,7.072 35.231 C 7.343 35.127,12.000 38.140,12.000 38.418 C 12.000 38.531,11.704 38.995,11.342 39.450 C 7.563 44.196,0.322 41.522,0.708 35.522 C 0.975 31.369,5.101 28.683,8.847 30.224 M125.385 30.513 L 124.853 30.853 125.304 31.552 C 125.552 31.936,126.129 32.831,126.586 33.541 C 127.547 35.035,127.422 34.973,128.191 34.339 C 130.476 32.455,127.879 28.915,125.385 30.513 M119.064 32.438 C 120.176 34.137,120.312 33.856,117.510 35.673 C 115.333 37.084,115.130 37.291,115.566 37.652 C 115.751 37.806,116.145 37.621,117.478 36.756 C 119.527 35.427,119.425 35.426,120.292 36.772 C 121.181 38.153,121.300 37.889,119.163 39.270 C 117.353 40.440,117.332 40.461,117.622 40.801 C 117.916 41.146,117.925 41.141,120.167 39.658 C 121.404 38.839,122.521 38.187,122.649 38.209 C 123.064 38.282,124.701 41.040,124.460 41.259 C 124.106 41.581,116.986 46.167,116.841 46.167 C 116.720 46.167,114.131 42.298,111.307 37.900 C 110.090 36.005,110.081 36.082,111.627 35.085 C 112.336 34.627,114.038 33.521,115.408 32.627 C 118.389 30.680,117.929 30.704,119.064 32.438 M20.417 36.999 C 22.434 38.282,24.148 39.429,24.227 39.548 C 24.426 39.846,22.569 42.727,22.286 42.559 C 22.068 42.429,19.719 40.926,18.513 40.144 C 18.108 39.882,17.717 39.667,17.644 39.667 C 17.506 39.667,17.098 40.333,17.195 40.400 C 17.225 40.421,18.019 40.920,18.958 41.510 C 20.919 42.741,20.887 42.660,19.979 44.097 C 19.185 45.354,19.363 45.361,17.264 44.000 C 15.565 42.900,15.423 42.854,15.175 43.319 C 15.023 43.603,15.265 43.803,17.419 45.168 C 18.747 46.010,19.833 46.733,19.833 46.775 C 19.833 46.859,18.185 49.496,17.991 49.722 C 17.925 49.799,17.057 49.332,16.061 48.684 C 15.065 48.037,13.313 46.912,12.167 46.185 C 10.926 45.397,10.106 44.773,10.139 44.640 C 10.252 44.186,16.385 34.667,16.565 34.667 C 16.668 34.667,18.401 35.716,20.417 36.999 M108.732 38.542 C 108.783 39.115,108.871 41.271,108.928 43.333 C 108.985 45.396,109.053 47.106,109.079 47.133 C 109.105 47.160,109.891 46.687,110.824 46.081 C 112.831 44.779,112.618 44.754,113.663 46.410 C 114.728 48.098,114.781 47.924,112.829 49.177 C 111.910 49.767,110.167 50.892,108.954 51.677 C 106.181 53.474,105.699 53.755,105.586 53.642 C 105.536 53.592,105.455 51.646,105.406 49.317 C 105.356 46.989,105.279 44.843,105.235 44.548 L 105.154 44.013 103.490 45.090 C 102.574 45.682,101.733 46.164,101.621 46.161 C 101.435 46.156,99.961 44.027,99.734 43.434 C 99.664 43.253,100.143 42.856,101.444 42.017 C 102.437 41.375,104.412 40.099,105.833 39.180 C 108.899 37.196,108.619 37.258,108.732 38.542 M26.851 41.259 C 27.126 41.401,28.079 41.950,28.967 42.477 C 29.856 43.005,31.390 43.909,32.375 44.486 C 33.360 45.064,34.167 45.600,34.167 45.679 C 34.167 45.868,32.513 48.667,32.401 48.667 C 32.285 48.667,30.470 47.665,30.204 47.454 C 29.934 47.240,30.179 46.882,27.836 50.917 C 25.448 55.028,25.774 54.602,25.209 54.349 C 23.098 53.406,22.436 52.737,22.924 52.040 C 23.066 51.838,23.450 51.203,23.778 50.628 C 24.106 50.053,24.506 49.358,24.667 49.083 C 24.828 48.808,25.228 48.113,25.556 47.539 C 25.884 46.964,26.268 46.329,26.409 46.127 C 26.810 45.555,26.726 45.369,25.873 44.937 C 25.437 44.716,24.911 44.396,24.705 44.226 L 24.329 43.917 25.186 42.458 C 26.115 40.877,26.114 40.878,26.851 41.259 M100.492 49.969 C 102.055 52.656,103.333 54.944,103.332 55.052 C 103.331 55.240,100.701 56.833,100.393 56.833 C 100.235 56.833,100.059 56.577,99.244 55.167 C 98.769 54.346,96.919 51.162,95.022 47.900 C 94.135 46.376,94.097 46.496,95.792 45.522 C 97.565 44.502,97.003 43.971,100.492 49.969 M92.938 47.625 C 93.884 49.316,97.943 57.942,97.844 58.048 C 97.776 58.120,97.015 58.022,96.152 57.830 C 94.176 57.389,89.907 56.500,89.768 56.500 C 89.711 56.500,90.152 57.474,90.749 58.664 C 91.345 59.855,91.833 60.866,91.833 60.912 C 91.833 61.012,89.404 62.242,88.893 62.400 C 88.513 62.518,88.818 63.091,84.098 53.417 C 83.605 52.408,83.257 51.525,83.323 51.453 C 83.390 51.381,85.195 51.699,87.335 52.160 C 89.474 52.620,91.261 52.961,91.306 52.917 C 91.350 52.872,90.962 51.967,90.443 50.905 C 89.279 48.522,89.230 48.808,90.958 47.927 C 92.699 47.039,92.618 47.052,92.938 47.625 M46.298 51.059 C 53.277 54.648,48.731 64.889,41.380 62.139 C 37.947 60.854,36.580 56.331,38.676 53.193 C 40.336 50.707,43.753 49.750,46.298 51.059 M54.871 53.318 C 58.713 54.176,59.334 54.513,60.368 56.300 C 61.478 58.221,61.024 61.066,59.377 62.512 L 58.819 63.002 59.260 64.845 C 59.792 67.067,59.934 66.914,57.787 66.429 C 55.593 65.933,55.718 66.020,55.471 64.824 C 55.276 63.880,55.234 63.820,54.674 63.681 C 53.072 63.282,53.211 63.235,53.000 64.250 C 52.775 65.331,52.698 65.351,50.619 64.853 C 49.006 64.467,49.120 64.711,49.589 62.664 C 50.392 59.157,50.861 57.049,51.182 55.500 C 51.543 53.755,51.818 52.667,51.898 52.667 C 51.926 52.667,53.264 52.960,54.871 53.318 M82.568 58.393 C 84.923 61.130,86.822 63.452,86.788 63.554 C 86.754 63.655,86.033 63.919,85.185 64.140 L 83.645 64.541 83.197 64.118 L 82.750 63.694 81.184 64.102 C 79.330 64.586,79.334 64.584,79.331 65.052 C 79.329 65.252,79.268 65.512,79.193 65.629 C 79.077 65.812,76.288 66.667,75.807 66.667 C 75.618 66.667,75.652 66.390,76.258 63.000 C 76.480 61.762,76.819 59.813,77.013 58.667 C 77.960 53.058,77.915 53.273,78.144 53.361 C 78.223 53.392,80.214 55.656,82.568 58.393 M42.150 54.792 C 40.737 56.110,41.234 58.358,43.047 58.846 C 43.953 59.090,44.758 58.849,45.461 58.123 C 47.544 55.975,44.339 52.750,42.150 54.792 M69.989 55.260 C 70.854 55.503,72.500 56.511,72.500 56.797 C 72.500 56.868,71.948 57.473,71.274 58.143 L 70.049 59.360 69.402 59.013 C 66.665 57.546,64.399 61.395,66.983 63.122 C 67.662 63.575,68.410 63.602,69.372 63.208 L 70.083 62.917 69.083 62.833 L 68.083 62.750 68.083 61.500 L 68.083 60.250 71.045 60.204 C 74.484 60.152,74.316 60.057,74.016 61.876 C 73.218 66.709,67.844 68.800,64.274 65.666 C 59.350 61.342,63.665 53.486,69.989 55.260 M54.580 57.221 C 54.450 57.605,54.000 59.468,54.000 59.620 C 54.000 59.787,55.441 60.167,56.072 60.167 C 57.728 60.167,57.702 57.770,56.041 57.357 C 54.765 57.040,54.645 57.029,54.580 57.221 M80.000 61.320 C 80.000 61.496,79.950 61.770,79.889 61.929 C 79.792 62.181,79.851 62.205,80.335 62.108 C 81.089 61.957,81.118 61.897,80.666 61.416 C 80.198 60.917,80.000 60.889,80.000 61.320 " stroke="none" fill="#0c0c14" fill-rule="evenodd"></path><path id="path2" d="M108.717 42.000 C 108.717 42.504,108.748 42.710,108.786 42.458 C 108.824 42.206,108.824 41.794,108.786 41.542 C 108.748 41.290,108.717 41.496,108.717 42.000 M105.381 47.250 C 105.382 47.708,105.415 47.876,105.453 47.623 C 105.491 47.369,105.490 46.994,105.451 46.789 C 105.411 46.584,105.380 46.792,105.381 47.250 M43.208 50.619 C 43.460 50.658,43.873 50.658,44.125 50.619 C 44.377 50.581,44.171 50.550,43.667 50.550 C 43.163 50.550,42.956 50.581,43.208 50.619 M105.519 52.698 C 105.509 53.129,105.559 53.517,105.632 53.562 C 105.704 53.607,105.738 53.367,105.706 53.030 C 105.608 51.999,105.540 51.878,105.519 52.698 M67.960 55.118 C 68.168 55.158,68.468 55.156,68.627 55.115 C 68.786 55.073,68.617 55.040,68.250 55.042 C 67.883 55.044,67.753 55.078,67.960 55.118 M71.162 58.125 L 70.083 59.250 71.208 58.171 C 71.827 57.578,72.333 57.072,72.333 57.046 C 72.333 56.924,72.164 57.080,71.162 58.125 " stroke="none" fill="#5c5d5f" fill-rule="evenodd"></path><path id="path3" d="M126.208 26.619 C 126.460 26.658,126.873 26.658,127.125 26.619 C 127.377 26.581,127.171 26.550,126.667 26.550 C 126.162 26.550,125.956 26.581,126.208 26.619 M126.375 29.948 C 126.535 29.990,126.798 29.990,126.958 29.948 C 127.119 29.906,126.987 29.872,126.667 29.872 C 126.346 29.872,126.215 29.906,126.375 29.948 M10.833 31.750 C 11.144 32.071,11.436 32.333,11.482 32.333 C 11.528 32.333,11.311 32.071,11.000 31.750 C 10.689 31.429,10.397 31.167,10.351 31.167 C 10.305 31.167,10.522 31.429,10.833 31.750 M0.709 35.917 C 0.711 36.283,0.745 36.414,0.785 36.206 C 0.824 35.999,0.823 35.699,0.781 35.540 C 0.739 35.380,0.707 35.550,0.709 35.917 M108.498 39.049 L 108.580 40.417 108.631 39.183 C 108.659 38.504,108.623 37.889,108.549 37.815 C 108.476 37.742,108.453 38.297,108.498 39.049 M10.573 40.042 L 10.083 40.583 10.625 40.094 C 11.130 39.638,11.243 39.500,11.115 39.500 C 11.086 39.500,10.842 39.744,10.573 40.042 M6.211 41.786 C 6.464 41.825,6.839 41.824,7.044 41.784 C 7.249 41.744,7.042 41.713,6.583 41.714 C 6.125 41.716,5.957 41.748,6.211 41.786 M108.725 44.833 C 108.725 45.612,108.754 45.931,108.789 45.542 C 108.824 45.152,108.824 44.515,108.789 44.125 C 108.754 43.735,108.725 44.054,108.725 44.833 M105.387 45.000 C 105.387 45.596,105.417 45.840,105.454 45.542 C 105.491 45.244,105.491 44.756,105.454 44.458 C 105.417 44.160,105.387 44.404,105.387 45.000 M105.556 50.333 C 105.556 51.021,105.585 51.302,105.621 50.958 C 105.657 50.615,105.657 50.052,105.621 49.708 C 105.585 49.365,105.556 49.646,105.556 50.333 M47.333 51.885 C 47.333 51.914,47.577 52.158,47.875 52.427 L 48.417 52.917 47.927 52.375 C 47.471 51.870,47.333 51.757,47.333 51.885 M49.552 56.583 C 49.553 57.133,49.584 57.338,49.621 57.039 C 49.658 56.739,49.657 56.289,49.619 56.039 C 49.581 55.788,49.551 56.033,49.552 56.583 M46.209 56.583 C 46.211 56.950,46.245 57.080,46.285 56.873 C 46.324 56.666,46.323 56.366,46.281 56.206 C 46.239 56.047,46.207 56.217,46.209 56.583 M71.074 60.289 L 73.815 60.341 73.882 61.005 L 73.949 61.669 73.933 60.960 L 73.917 60.250 71.125 60.244 L 68.333 60.238 71.074 60.289 M79.903 60.725 C 79.842 60.884,79.839 61.061,79.896 61.118 C 79.953 61.175,80.000 61.083,80.000 60.912 C 80.000 60.658,80.107 60.705,80.587 61.170 C 80.952 61.524,81.138 61.836,81.077 61.995 C 80.999 62.201,81.021 62.210,81.193 62.039 C 81.365 61.868,81.274 61.695,80.710 61.132 C 80.119 60.541,79.997 60.479,79.903 60.725 M68.460 62.618 C 68.668 62.658,68.968 62.656,69.127 62.615 C 69.286 62.573,69.117 62.540,68.750 62.542 C 68.383 62.544,68.253 62.578,68.460 62.618 M72.073 65.375 L 71.583 65.917 72.125 65.427 C 72.630 64.971,72.743 64.833,72.615 64.833 C 72.586 64.833,72.342 65.077,72.073 65.375 " stroke="none" fill="#7c7c7c" fill-rule="evenodd"></path><path id="path4" d="" stroke="none" fill="#747c7c" fill-rule="evenodd"></path><path id="path5" d="" stroke="none" fill="#74747c" fill-rule="evenodd"></path><path id="path6" d="M126.294 26.451 C 126.501 26.491,126.801 26.490,126.960 26.448 C 127.120 26.406,126.950 26.374,126.583 26.375 C 126.217 26.377,126.086 26.411,126.294 26.451 M126.460 30.118 C 126.668 30.158,126.968 30.156,127.127 30.115 C 127.286 30.073,127.117 30.040,126.750 30.042 C 126.383 30.044,126.253 30.078,126.460 30.118 M10.500 31.219 C 10.500 31.248,10.744 31.491,11.042 31.760 L 11.583 32.250 11.094 31.708 C 10.638 31.203,10.500 31.090,10.500 31.219 M132.718 32.417 C 132.719 32.967,132.750 33.172,132.787 32.872 C 132.825 32.572,132.824 32.122,132.786 31.872 C 132.748 31.622,132.717 31.867,132.718 32.417 M6.833 38.333 L 6.417 38.467 6.875 38.483 C 7.127 38.493,7.333 38.425,7.333 38.333 C 7.333 38.242,7.315 38.174,7.292 38.183 C 7.269 38.192,7.063 38.260,6.833 38.333 M108.725 39.833 C 108.725 40.612,108.754 40.931,108.789 40.542 C 108.824 40.152,108.824 39.515,108.789 39.125 C 108.754 38.735,108.725 39.054,108.725 39.833 M6.294 41.951 C 6.501 41.991,6.801 41.990,6.960 41.948 C 7.120 41.906,6.950 41.874,6.583 41.875 C 6.217 41.877,6.086 41.911,6.294 41.951 M108.892 45.083 C 108.892 45.908,108.920 46.267,108.955 45.880 C 108.990 45.493,108.990 44.818,108.956 44.380 C 108.922 43.942,108.893 44.258,108.892 45.083 M105.392 49.417 C 105.392 50.242,105.420 50.600,105.455 50.213 C 105.490 49.827,105.490 49.152,105.456 48.713 C 105.422 48.275,105.393 48.592,105.392 49.417 M47.917 52.333 C 48.275 52.700,48.605 53.000,48.651 53.000 C 48.697 53.000,48.441 52.700,48.083 52.333 C 47.725 51.967,47.395 51.667,47.349 51.667 C 47.303 51.667,47.559 51.967,47.917 52.333 M95.848 53.750 C 95.848 53.842,96.029 54.254,96.250 54.667 C 96.471 55.079,96.652 55.342,96.652 55.250 C 96.652 55.158,96.471 54.746,96.250 54.333 C 96.029 53.921,95.848 53.658,95.848 53.750 M59.000 54.719 C 59.000 54.748,59.244 54.991,59.542 55.260 L 60.083 55.750 59.594 55.208 C 59.138 54.703,59.000 54.590,59.000 54.719 M49.712 56.500 C 49.712 56.913,49.745 57.081,49.784 56.875 C 49.824 56.669,49.824 56.331,49.784 56.125 C 49.745 55.919,49.712 56.087,49.712 56.500 M68.071 61.500 L 68.083 62.750 69.167 62.764 L 70.250 62.778 69.215 62.715 L 68.181 62.651 68.120 61.451 L 68.058 60.250 68.071 61.500 M74.042 60.917 C 74.044 61.283,74.078 61.414,74.118 61.206 C 74.158 60.999,74.156 60.699,74.115 60.540 C 74.073 60.380,74.040 60.550,74.042 60.917 M80.014 60.875 C 80.052 60.898,80.308 61.104,80.583 61.333 L 81.083 61.750 80.679 61.292 C 80.457 61.040,80.201 60.833,80.110 60.833 C 80.019 60.833,79.976 60.852,80.014 60.875 M59.406 62.375 L 58.917 62.917 59.458 62.427 C 59.963 61.971,60.077 61.833,59.948 61.833 C 59.919 61.833,59.675 62.077,59.406 62.375 M43.377 62.620 C 43.631 62.658,44.006 62.657,44.211 62.617 C 44.416 62.578,44.208 62.546,43.750 62.548 C 43.292 62.549,43.124 62.581,43.377 62.620 M72.158 65.458 L 71.583 66.083 72.208 65.509 C 72.552 65.193,72.833 64.912,72.833 64.884 C 72.833 64.757,72.692 64.877,72.158 65.458 M67.708 67.119 C 67.960 67.158,68.373 67.158,68.625 67.119 C 68.877 67.081,68.671 67.050,68.167 67.050 C 67.662 67.050,67.456 67.081,67.708 67.119 " stroke="none" fill="#323537" fill-rule="evenodd"></path></g></svg>