<svg width="660" height="523" viewBox="0 0 660 523" fill="none" xmlns="http://www.w3.org/2000/svg">
<g clip-path="url(#clip0)">
<path d="M529.912 124.112H527.044V45.4992C527.044 39.5242 525.867 33.6076 523.581 28.0874C521.295 22.5672 517.945 17.5514 513.722 13.3264C509.498 9.10143 504.484 5.74998 498.966 3.46343C493.447 1.17688 487.533 2.82733e-06 481.56 1.11088e-10H315.063C303 -2.66458e-05 291.431 4.79359 282.901 13.3263C274.371 21.859 269.579 33.4319 269.579 45.499V476.777C269.579 488.844 274.371 500.417 282.901 508.95C291.43 517.482 302.999 522.276 315.063 522.276H481.559C493.622 522.276 505.192 517.483 513.721 508.95C522.251 500.417 527.043 488.844 527.043 476.777V180.071H529.912L529.912 124.112Z" fill="#E6E6E6"/>
<path d="M517.363 45.8167V476.46C517.362 485.472 513.784 494.115 507.413 500.487C501.043 506.86 492.403 510.44 483.394 510.44H316.098C307.089 510.44 298.45 506.86 292.079 500.487C285.709 494.115 282.13 485.472 282.13 476.46V45.8167C282.13 36.8048 285.709 28.162 292.079 21.7896C298.45 15.4171 307.089 11.8371 316.098 11.8369H336.393C335.396 14.2883 335.016 16.9473 335.287 19.58C335.559 22.2127 336.472 24.7384 337.948 26.9349C339.424 29.1315 341.417 30.9315 343.752 32.1768C346.086 33.4221 348.691 34.0744 351.337 34.0763H446.721C449.367 34.0743 451.971 33.422 454.306 32.1768C456.641 30.9315 458.633 29.1314 460.109 26.9349C461.585 24.7383 462.499 22.2127 462.77 19.58C463.041 16.9473 462.661 14.2883 461.664 11.8369H483.394C492.403 11.8371 501.043 15.4171 507.413 21.7896C513.784 28.162 517.362 36.8048 517.363 45.8167Z" fill="white"/>
<path d="M325.016 51.7778C318.928 51.7778 313.089 54.1972 308.783 58.5038C304.478 62.8104 302.06 68.6515 302.06 74.7419C302.06 80.8324 304.478 86.6735 308.783 90.9801C313.088 95.2867 318.928 97.7062 325.016 97.7062H325.016C331.105 97.7062 336.944 95.2868 341.249 90.9802C345.554 86.6735 347.973 80.8325 347.973 74.742C347.973 68.6515 345.554 62.8105 341.249 58.5039C336.944 54.1973 331.105 51.7778 325.016 51.7778Z" fill="#E6E6E6"/>
<path d="M491.694 94.1183H371.172C369.65 94.1183 368.19 93.5135 367.114 92.4368C366.038 91.3602 365.433 89.8999 365.433 88.3773C365.433 86.8547 366.038 85.3944 367.114 84.3178C368.19 83.2411 369.65 82.6362 371.172 82.6362H491.694C493.216 82.6362 494.676 83.2411 495.752 84.3178C496.828 85.3944 497.433 86.8547 497.433 88.3773C497.433 89.8999 496.828 91.3602 495.752 92.4368C494.676 93.5135 493.216 94.1183 491.694 94.1183Z" fill="#E6E6E6"/>
<path d="M409.194 69.7189H371.172C369.65 69.7189 368.19 69.1141 367.114 68.0374C366.038 66.9607 365.433 65.5005 365.433 63.9779C365.433 62.4552 366.038 60.995 367.114 59.9183C368.19 58.8417 369.65 58.2368 371.172 58.2368H409.194C410.716 58.2368 412.176 58.8417 413.252 59.9183C414.328 60.995 414.933 62.4552 414.933 63.9779C414.933 65.5005 414.328 66.9607 413.252 68.0374C412.176 69.1141 410.716 69.7189 409.194 69.7189Z" fill="#E6E6E6"/>
<path d="M325.016 147.94C318.928 147.94 313.089 150.36 308.783 154.666C304.478 158.973 302.06 164.814 302.06 170.905C302.06 176.995 304.478 182.836 308.783 187.143C313.088 191.449 318.928 193.869 325.016 193.869H325.016C331.105 193.869 336.944 191.449 341.249 187.143C345.554 182.836 347.973 176.995 347.973 170.905C347.973 164.814 345.554 158.973 341.249 154.666C336.944 150.36 331.105 147.94 325.016 147.94Z" fill="#E6E6E6"/>
<path d="M491.694 190.281H371.172C369.65 190.281 368.19 189.676 367.114 188.599C366.038 187.523 365.433 186.062 365.433 184.54C365.433 183.017 366.038 181.557 367.114 180.48C368.19 179.404 369.65 178.799 371.172 178.799H491.694C493.216 178.799 494.676 179.404 495.752 180.48C496.828 181.557 497.433 183.017 497.433 184.54C497.433 186.062 496.828 187.523 495.752 188.599C494.676 189.676 493.216 190.281 491.694 190.281Z" fill="#E6E6E6"/>
<path d="M409.194 165.882H371.172C369.65 165.882 368.19 165.277 367.114 164.2C366.038 163.123 365.433 161.663 365.433 160.14C365.433 158.618 366.038 157.158 367.114 156.081C368.19 155.004 369.65 154.399 371.172 154.399H409.194C410.716 154.399 412.176 155.004 413.252 156.081C414.328 157.158 414.933 158.618 414.933 160.14C414.933 161.663 414.328 163.123 413.252 164.2C412.176 165.277 410.716 165.882 409.194 165.882Z" fill="#E6E6E6"/>
<path d="M325.016 340.266C318.928 340.266 313.089 342.685 308.783 346.992C304.478 351.298 302.06 357.139 302.06 363.23C302.06 369.32 304.478 375.161 308.783 379.468C313.088 383.775 318.928 386.194 325.016 386.194H325.016C331.105 386.194 336.944 383.775 341.249 379.468C345.554 375.161 347.973 369.32 347.973 363.23C347.973 357.139 345.554 351.298 341.249 346.992C336.944 342.685 331.105 340.266 325.016 340.266Z" fill="#E6E6E6"/>
<path d="M491.694 382.606H371.172C369.65 382.606 368.19 382.001 367.114 380.925C366.038 379.848 365.433 378.388 365.433 376.865C365.433 375.342 366.038 373.882 367.114 372.806C368.19 371.729 369.65 371.124 371.172 371.124H491.694C493.216 371.124 494.676 371.729 495.752 372.806C496.828 373.882 497.433 375.342 497.433 376.865C497.433 378.388 496.828 379.848 495.752 380.925C494.676 382.001 493.216 382.606 491.694 382.606Z" fill="#E6E6E6"/>
<path d="M409.194 358.207H371.172C369.65 358.207 368.19 357.602 367.114 356.525C366.038 355.449 365.433 353.988 365.433 352.466C365.433 350.943 366.038 349.483 367.114 348.406C368.19 347.329 369.65 346.725 371.172 346.725H409.194C410.716 346.725 412.176 347.329 413.252 348.406C414.328 349.483 414.933 350.943 414.933 352.466C414.933 353.988 414.328 355.449 413.252 356.525C412.176 357.602 410.716 358.207 409.194 358.207Z" fill="#E6E6E6"/>
<path d="M325.016 436.428C318.928 436.428 313.089 438.848 308.783 443.154C304.478 447.461 302.06 453.302 302.06 459.392C302.06 465.483 304.478 471.324 308.783 475.631C313.088 479.937 318.928 482.357 325.016 482.357H325.016C331.105 482.357 336.944 479.937 341.249 475.631C345.554 471.324 347.973 465.483 347.973 459.392C347.973 453.302 345.554 447.461 341.249 443.154C336.944 438.848 331.105 436.428 325.016 436.428Z" fill="#E6E6E6"/>
<path d="M491.694 478.769H371.172C369.65 478.769 368.19 478.164 367.114 477.087C366.038 476.011 365.433 474.55 365.433 473.028C365.433 471.505 366.038 470.045 367.114 468.968C368.19 467.891 369.65 467.287 371.172 467.287H491.694C493.216 467.287 494.676 467.891 495.752 468.968C496.828 470.045 497.433 471.505 497.433 473.028C497.433 474.55 496.828 476.011 495.752 477.087C494.676 478.164 493.216 478.769 491.694 478.769Z" fill="#E6E6E6"/>
<path d="M409.194 454.369H371.172C369.65 454.369 368.19 453.764 367.114 452.687C366.038 451.611 365.433 450.15 365.433 448.628C365.433 447.105 366.038 445.645 367.114 444.568C368.19 443.492 369.65 442.887 371.172 442.887H409.194C410.716 442.887 412.176 443.492 413.252 444.568C414.328 445.645 414.933 447.105 414.933 448.628C414.933 450.15 414.328 451.611 413.252 452.687C412.176 453.764 410.716 454.369 409.194 454.369Z" fill="#E6E6E6"/>
<path d="M538.203 322.325H261.29C258.151 322.321 255.143 321.073 252.924 318.853C250.704 316.633 249.456 313.623 249.453 310.484V221.498C249.456 218.358 250.704 215.349 252.924 213.129C255.143 210.909 258.151 209.66 261.29 209.657H538.203C541.341 209.66 544.35 210.909 546.569 213.129C548.788 215.349 550.036 218.358 550.04 221.498V310.484C550.036 313.623 548.788 316.633 546.569 318.853C544.35 321.073 541.341 322.321 538.203 322.325Z" fill="white"/>
<path d="M295.297 298.806C288.809 298.806 282.467 296.881 277.072 293.275C271.678 289.67 267.473 284.545 264.99 278.549C262.507 272.553 261.858 265.955 263.123 259.589C264.389 253.224 267.513 247.377 272.101 242.788C276.689 238.199 282.534 235.073 288.897 233.807C295.26 232.541 301.856 233.191 307.85 235.675C313.844 238.158 318.967 242.364 322.572 247.761C326.176 253.157 328.1 259.501 328.1 265.991C328.09 274.691 324.631 283.032 318.481 289.184C312.332 295.335 303.994 298.796 295.297 298.806ZM295.297 234.612C289.093 234.612 283.028 236.452 277.869 239.9C272.711 243.348 268.69 248.249 266.316 253.983C263.942 259.717 263.32 266.026 264.531 272.113C265.741 278.2 268.729 283.791 273.116 288.18C277.503 292.568 283.092 295.557 289.177 296.768C295.262 297.978 301.569 297.357 307.301 294.982C313.033 292.607 317.932 288.585 321.379 283.425C324.826 278.264 326.665 272.197 326.665 265.991C326.656 257.672 323.348 249.696 317.467 243.813C311.587 237.93 303.613 234.621 295.297 234.612Z" fill="#3F3D56"/>
<path d="M528.26 293.073H359.808C358.754 293.074 357.71 292.867 356.736 292.464C355.762 292.061 354.877 291.471 354.131 290.725C353.385 289.98 352.794 289.095 352.39 288.121C351.987 287.147 351.779 286.103 351.779 285.049C351.779 283.994 351.987 282.95 352.39 281.976C352.794 281.002 353.385 280.117 354.131 279.372C354.877 278.627 355.762 278.036 356.736 277.633C357.71 277.23 358.754 277.023 359.808 277.024H528.26C529.314 277.023 530.358 277.23 531.332 277.633C532.307 278.036 533.192 278.627 533.937 279.372C534.683 280.117 535.275 281.002 535.678 281.976C536.082 282.95 536.29 283.994 536.29 285.049C536.29 286.103 536.082 287.147 535.678 288.121C535.275 289.095 534.683 289.98 533.937 290.725C533.192 291.471 532.307 292.061 531.332 292.464C530.358 292.867 529.314 293.074 528.26 293.073Z" fill="#6C63FF"/>
<path d="M412.951 258.97H359.808C358.754 258.971 357.71 258.764 356.736 258.361C355.762 257.958 354.877 257.367 354.131 256.622C353.385 255.877 352.794 254.992 352.39 254.018C351.987 253.044 351.779 252 351.779 250.946C351.779 249.891 351.987 248.847 352.39 247.873C352.794 246.899 353.385 246.014 354.131 245.269C354.877 244.524 355.762 243.933 356.736 243.53C357.71 243.127 358.754 242.92 359.808 242.921H412.951C414.005 242.92 415.049 243.127 416.023 243.53C416.997 243.933 417.882 244.524 418.628 245.269C419.373 246.014 419.965 246.899 420.369 247.873C420.772 248.847 420.98 249.891 420.98 250.946C420.98 252 420.772 253.044 420.369 254.018C419.965 254.992 419.373 255.877 418.628 256.622C417.882 257.367 416.997 257.958 416.023 258.361C415.049 258.764 414.005 258.971 412.951 258.97Z" fill="black"/>
<path d="M538.203 322.325H261.29C258.151 322.321 255.143 321.073 252.924 318.853C250.704 316.633 249.456 313.623 249.453 310.484V221.498C249.456 218.358 250.704 215.349 252.924 213.129C255.143 210.909 258.151 209.66 261.29 209.657H538.203C541.341 209.66 544.35 210.909 546.569 213.129C548.788 215.349 550.036 218.358 550.04 221.498V310.484C550.036 313.623 548.788 316.633 546.569 318.853C544.35 321.073 541.341 322.321 538.203 322.325ZM261.29 210.374C258.342 210.378 255.515 211.551 253.431 213.636C251.346 215.721 250.173 218.549 250.17 221.498V310.484C250.173 313.433 251.346 316.26 253.431 318.346C255.515 320.431 258.342 321.604 261.29 321.607H538.203C541.151 321.604 543.977 320.431 546.062 318.346C548.146 316.26 549.319 313.433 549.322 310.484V221.498C549.319 218.549 548.146 215.721 546.062 213.636C543.977 211.551 541.151 210.378 538.203 210.374H261.29Z" fill="#3F3D56"/>
<path d="M294.717 281.96C302.108 281.96 308.099 275.967 308.099 268.573C308.099 261.18 302.108 255.187 294.717 255.187C287.326 255.187 281.334 261.18 281.334 268.573C281.334 275.967 287.326 281.96 294.717 281.96Z" fill="#2F2E41"/>
<path d="M284.271 261.355C286.434 259.192 286.872 256.123 285.25 254.501C283.628 252.878 280.56 253.317 278.398 255.48C276.235 257.643 275.797 260.712 277.419 262.335C279.041 263.957 282.108 263.519 284.271 261.355Z" fill="#2F2E41"/>
<path d="M308.665 257.104C309.566 254.994 308.016 252.309 305.204 251.108C302.392 249.906 299.381 250.642 298.48 252.752C297.579 254.862 299.129 257.547 301.941 258.749C304.753 259.951 307.764 259.214 308.665 257.104Z" fill="#2F2E41"/>
<path d="M295.141 283.13C301.414 283.13 306.499 278.044 306.499 271.769C306.499 265.494 301.414 260.408 295.141 260.408C288.869 260.408 283.784 265.494 283.784 271.769C283.784 278.044 288.869 283.13 295.141 283.13Z" fill="#FFB8B8"/>
<path d="M283.207 264.622C285.802 266.412 288.883 267.364 292.035 267.352C290.911 268.131 289.631 268.658 288.283 268.896C292.474 269.795 296.805 269.819 301.006 268.967C301.94 268.817 302.841 268.508 303.669 268.052C304.082 267.821 304.442 267.506 304.725 267.127C305.009 266.748 305.209 266.314 305.313 265.853C305.593 264.258 304.35 262.808 303.059 261.832C301.082 260.359 298.802 259.344 296.385 258.861C293.968 258.378 291.473 258.438 289.082 259.038C287.489 259.358 286.039 260.178 284.943 261.378C283.929 262.632 283.629 264.566 284.595 265.857L283.207 264.622Z" fill="#2F2E41"/>
<path d="M127.506 366.828C127.173 365.751 127.081 364.614 127.236 363.498C127.39 362.381 127.788 361.313 128.4 360.366C129.012 359.42 129.824 358.62 130.779 358.022C131.734 357.423 132.808 357.042 133.926 356.904L170.752 313.858L179.341 322.879L142.66 364.153C142.768 366.047 142.176 367.915 140.999 369.403C139.821 370.89 138.139 371.894 136.271 372.224C134.403 372.554 132.479 372.186 130.863 371.192C129.248 370.197 128.053 368.645 127.506 366.828Z" fill="#A0616A"/>
<path d="M158.771 320.579C158.734 320.117 158.796 319.652 158.955 319.215C159.113 318.779 159.364 318.383 159.69 318.052L171.067 306.512C172.467 304.594 174.57 303.309 176.915 302.94C179.261 302.57 181.657 303.147 183.578 304.543C185.499 305.939 186.788 308.04 187.162 310.385C187.537 312.73 186.966 315.129 185.575 317.053L178.01 331.446C177.794 331.857 177.492 332.216 177.125 332.499C176.758 332.783 176.334 332.984 175.882 333.089C175.43 333.194 174.961 333.2 174.506 333.107C174.052 333.014 173.622 332.824 173.248 332.55L160.084 322.926C159.71 322.653 159.398 322.301 159.172 321.896C158.945 321.491 158.809 321.042 158.771 320.579Z" fill="#6C63FF"/>
<path d="M185.486 294.168C195.217 294.168 203.105 286.276 203.105 276.542C203.105 266.807 195.217 258.916 185.486 258.916C175.754 258.916 167.866 266.807 167.866 276.542C167.866 286.276 175.754 294.168 185.486 294.168Z" fill="#A0616A"/>
<path d="M175.905 355.415C175.555 355.155 175.262 354.825 175.044 354.447C174.826 354.069 174.688 353.65 174.638 353.216C173.42 343.03 171.647 332.918 169.328 322.925C168.301 318.434 168.939 313.724 171.123 309.668C173.306 305.613 176.888 302.488 181.202 300.876C185.515 299.263 190.267 299.272 194.575 300.901C198.882 302.53 202.452 305.667 204.621 309.731C211.55 322.74 212.08 340.601 211.986 347.676C211.975 348.431 211.7 349.159 211.208 349.732C210.715 350.304 210.038 350.686 209.293 350.81L178.377 356.016C178.197 356.046 178.015 356.062 177.832 356.061C177.136 356.061 176.46 355.834 175.905 355.415Z" fill="#2F2E41"/>
<path d="M242.651 298.026C242.563 298.413 242.506 298.807 242.479 299.203L211.662 316.987L204.171 312.673L196.186 323.131L208.705 332.057C209.716 332.778 210.934 333.151 212.176 333.121C213.417 333.091 214.615 332.658 215.59 331.889L247.368 306.81C248.802 307.342 250.364 307.423 251.846 307.045C253.328 306.666 254.659 305.845 255.663 304.691C256.667 303.538 257.296 302.105 257.466 300.585C257.637 299.065 257.34 297.529 256.616 296.181C255.893 294.834 254.776 293.738 253.415 293.041C252.054 292.344 250.513 292.077 248.997 292.278C247.481 292.478 246.061 293.135 244.928 294.162C243.794 295.189 243 296.536 242.651 298.026Z" fill="#A0616A"/>
<path d="M210.632 317.829L200.672 330.742C200.388 331.11 200.029 331.412 199.619 331.628C199.208 331.844 198.756 331.969 198.292 331.994C197.829 332.02 197.366 331.945 196.934 331.775C196.503 331.605 196.112 331.344 195.791 331.01L184.515 319.297C182.645 317.836 181.429 315.692 181.136 313.337C180.843 310.981 181.495 308.604 182.951 306.729C184.406 304.853 186.545 303.632 188.9 303.332C191.254 303.032 193.631 303.678 195.51 305.128L209.652 313.038C210.057 313.265 210.408 313.576 210.682 313.951C210.956 314.326 211.146 314.755 211.239 315.21C211.332 315.664 211.326 316.134 211.221 316.586C211.116 317.038 210.915 317.462 210.632 317.829H210.632Z" fill="#6C63FF"/>
<path d="M226.159 514.141L234.954 514.14L237.025 480.315L226.158 480.206L226.159 514.141Z" fill="#A0616A"/>
<path d="M223.916 511.268L241.236 511.268H241.237C242.686 511.268 244.122 511.553 245.461 512.108C246.8 512.663 248.017 513.476 249.042 514.502C250.067 515.527 250.88 516.744 251.435 518.084C251.989 519.423 252.275 520.859 252.275 522.309V522.668L223.916 522.669L223.916 511.268Z" fill="#2F2E41"/>
<path d="M142.224 514.141L151.019 514.14L155.203 480.205L142.223 480.206L142.224 514.141Z" fill="#A0616A"/>
<path d="M139.981 511.268L157.302 511.268H157.302C158.752 511.268 160.187 511.553 161.526 512.108C162.866 512.663 164.082 513.476 165.107 514.502C166.132 515.527 166.945 516.744 167.5 518.084C168.055 519.423 168.34 520.859 168.34 522.309V522.668L139.981 522.669L139.981 511.268Z" fill="#2F2E41"/>
<path d="M151.81 496.516L140.895 495.092C140.439 495.033 140 494.876 139.61 494.634C139.219 494.391 138.885 494.068 138.629 493.685C138.373 493.303 138.202 492.87 138.128 492.416C138.053 491.962 138.076 491.497 138.195 491.053L154.117 412.787C155.699 405.189 156.795 397.497 157.395 389.759C157.86 383.463 159.703 374.56 165.841 367.903C168.337 365.171 170.666 362.292 172.817 359.28L177.636 352.605L209.741 347.495L209.763 347.892C211.15 373.412 217.777 398.373 229.23 421.218C234.381 431.493 237.338 442.729 237.913 454.209L239.732 489.698C239.755 490.147 239.683 490.597 239.522 491.017C239.361 491.438 239.114 491.82 238.797 492.139C238.481 492.46 238.101 492.711 237.681 492.875C237.261 493.038 236.811 493.111 236.361 493.088L225.927 492.614C225.22 492.58 224.543 492.316 224 491.861C223.458 491.406 223.079 490.785 222.923 490.094L214.212 451.213C214.133 450.866 213.983 450.54 213.77 450.255L186.43 413.79C186.235 413.53 185.973 413.327 185.672 413.205C185.371 413.082 185.042 413.043 184.721 413.093C184.4 413.143 184.098 413.279 183.848 413.487C183.598 413.695 183.41 413.966 183.302 414.273L155.274 494.38C155.051 495.012 154.638 495.558 154.091 495.946C153.545 496.333 152.893 496.541 152.223 496.543C152.085 496.543 151.947 496.534 151.81 496.516Z" fill="#2F2E41"/>
<path d="M166.003 264.308C167.403 260.064 168.436 255.707 169.092 251.286C169.298 248.713 168.638 245.943 166.765 244.167C163.258 240.844 157.3 242.427 153.633 245.572C148.333 250.118 145.69 257.104 144.691 264.015C143.692 270.927 144.131 277.955 143.891 284.935C143.651 291.914 142.653 299.091 139.096 305.1C135.539 311.109 128.938 315.722 121.975 315.21C119.165 315.058 116.496 313.927 114.433 312.013C113.42 311.049 112.653 309.856 112.196 308.534C111.739 307.212 111.605 305.8 111.806 304.416C108.247 310.79 110.051 319.429 115.359 324.44C120.667 329.451 128.832 330.868 135.81 328.729C142.788 326.589 148.532 321.224 151.962 314.78C155.392 308.336 156.65 300.892 156.467 293.593C156.328 287.988 155.375 282.338 156.322 276.812C157.269 271.286 160.726 265.675 166.178 264.374L166.003 264.308Z" fill="#2F2E41"/>
<path d="M190.485 271.573C191.415 274.679 194.97 276.595 198.168 276.069C201.367 275.544 203.996 272.909 204.968 269.816C205.847 266.657 205.487 263.282 203.963 260.379C203.122 258.639 201.948 257.082 200.505 255.797C199.063 254.511 197.381 253.523 195.557 252.889C193.722 252.281 191.768 252.123 189.859 252.428C187.95 252.733 186.143 253.492 184.589 254.642C184.423 253.944 184.075 253.303 183.579 252.785C183.084 252.267 182.459 251.89 181.77 251.693C180.381 251.319 178.916 251.341 177.54 251.756C173.573 252.887 170.135 255.388 167.839 258.815C165.571 262.232 164.071 266.1 163.442 270.152C162.36 276.23 162.759 282.871 166.171 288.014C169.583 293.158 176.564 296.195 182.227 293.743C182.58 291.937 181.744 290.118 180.776 288.554C179.808 286.989 178.661 285.464 178.289 283.662C177.917 281.86 178.63 279.656 180.373 279.066C181.859 278.564 183.444 279.378 185.01 279.477C185.9 279.532 186.788 279.353 187.587 278.957C188.385 278.561 189.065 277.962 189.559 277.22C190.053 276.478 190.343 275.619 190.4 274.729C190.458 273.84 190.28 272.951 189.885 272.151L190.485 271.573Z" fill="#2F2E41"/>
</g>
<defs>
<clipPath id="clip0">
<rect width="660" height="523" fill="white"/>
</clipPath>
</defs>
</svg>
