<svg width="1020" height="612" viewBox="0 0 1020 612" fill="none" xmlns="http://www.w3.org/2000/svg">
<path d="M279.759 611.197L253.267 537.018C253.267 537.018 282.409 551.589 283.733 570.134C283.733 570.134 277.11 477.411 263.864 457.542C263.864 457.542 285.058 460.191 308.901 563.511C308.901 563.511 312.875 444.295 277.11 409.855C277.11 409.855 326.121 449.594 330.095 535.694V611.197H279.759Z" fill="#F2F2F2"/>
<path d="M776.591 611.197L770.221 593.361C770.221 593.361 777.228 596.865 777.546 601.323C777.546 601.323 775.954 579.029 772.769 574.252C772.769 574.252 777.864 574.889 783.597 599.731C783.597 599.731 784.553 571.067 775.953 562.786C775.953 562.786 787.738 572.341 788.693 593.043V611.197L776.591 611.197Z" fill="#F2F2F2"/>
<path d="M658.583 457.795C722.9 457.795 775.039 405.656 775.039 341.339C775.039 277.021 722.9 224.882 658.583 224.882C594.265 224.882 542.126 277.021 542.126 341.339C542.126 405.656 594.265 457.795 658.583 457.795Z" fill="#F2F2F2"/>
<path d="M274.677 8.83447H0V161.433H274.677V8.83447Z" fill="#F2F2F2"/>
<path d="M647.339 8.83447H372.662V161.433H647.339V8.83447Z" fill="#F2F2F2"/>
<path d="M1020 8.83447H745.323V161.433H1020V8.83447Z" fill="#F2F2F2"/>
<path d="M706.086 611.616C705.902 611.315 701.556 604.058 700.049 588.99C698.667 575.165 699.556 551.863 711.641 519.358C734.535 457.78 706.365 408.095 706.077 407.6L707.467 406.794C707.54 406.919 714.809 419.587 719.103 439.758C724.777 466.501 722.711 494.307 713.147 519.918C690.292 581.391 707.283 610.492 707.457 610.779L706.086 611.616Z" fill="#3F3D56"/>
<path d="M697.134 403.984C702.9 403.984 707.575 399.31 707.575 393.543C707.575 387.777 702.9 383.103 697.134 383.103C691.367 383.103 686.693 387.777 686.693 393.543C686.693 399.31 691.367 403.984 697.134 403.984Z" fill="#6C63FF"/>
<path d="M730.063 442.535C735.829 442.535 740.504 437.861 740.504 432.094C740.504 426.328 735.829 421.653 730.063 421.653C724.297 421.653 719.622 426.328 719.622 432.094C719.622 437.861 724.297 442.535 730.063 442.535Z" fill="#3F3D56"/>
<path d="M707.575 468.236C713.341 468.236 718.016 463.562 718.016 457.795C718.016 452.029 713.341 447.354 707.575 447.354C701.808 447.354 697.134 452.029 697.134 457.795C697.134 463.562 701.808 468.236 707.575 468.236Z" fill="#6C63FF"/>
<path d="M734.882 489.921C740.648 489.921 745.323 485.247 745.323 479.48C745.323 473.714 740.648 469.04 734.882 469.04C729.115 469.04 724.441 473.714 724.441 479.48C724.441 485.247 729.115 489.921 734.882 489.921Z" fill="#6C63FF"/>
<path d="M699.544 523.653C705.31 523.653 709.984 518.979 709.984 513.212C709.984 507.446 705.31 502.771 699.544 502.771C693.777 502.771 689.103 507.446 689.103 513.212C689.103 518.979 693.777 523.653 699.544 523.653Z" fill="#3F3D56"/>
<path d="M712.394 612C712.394 612 701.953 586.299 733.276 567.023L712.394 612Z" fill="#3F3D56"/>
<path d="M699.553 611.534C699.553 611.534 694.801 584.203 658.023 584.438L699.553 611.534Z" fill="#3F3D56"/>
<path d="M274.275 0H0.401367V13.6535H274.275V0Z" fill="#3F3D56"/>
<path d="M647.74 0H373.063V13.6535H647.74V0Z" fill="#3F3D56"/>
<path d="M1019.6 0H745.725V13.6535H1019.6V0Z" fill="#3F3D56"/>
<path d="M70.6771 34.937H20.8818V70.2756H70.6771V34.937Z" fill="white"/>
<path d="M253.795 34.937H116.457V38.9528H253.795V34.937Z" fill="white"/>
<path d="M253.795 51H116.457V55.0158H253.795V51Z" fill="white"/>
<path d="M253.795 67.063H116.457V71.0787H253.795V67.063Z" fill="white"/>
<path d="M443.339 34.937H393.543V70.2756H443.339V34.937Z" fill="white"/>
<path d="M626.457 34.937H489.118V38.9528H626.457V34.937Z" fill="white"/>
<path d="M626.457 51H489.118V55.0158H626.457V51Z" fill="white"/>
<path d="M626.457 67.063H489.118V71.0787H626.457V67.063Z" fill="white"/>
<path d="M816 34.937H766.205V70.2756H816V34.937Z" fill="white"/>
<path d="M999.118 34.937H861.779V38.9528H999.118V34.937Z" fill="white"/>
<path d="M999.118 51H861.779V55.0158H999.118V51Z" fill="white"/>
<path d="M999.118 67.063H861.779V71.0787H999.118V67.063Z" fill="white"/>
<path d="M45.7793 69.0708C54.6506 69.0708 61.8423 61.8792 61.8423 53.0078C61.8423 44.1365 54.6506 36.9448 45.7793 36.9448C36.908 36.9448 29.7163 44.1365 29.7163 53.0078C29.7163 61.8792 36.908 69.0708 45.7793 69.0708Z" fill="#6C63FF"/>
<path d="M791.103 69.0708C799.974 69.0708 807.166 61.8792 807.166 53.0078C807.166 44.1365 799.974 36.9448 791.103 36.9448C782.231 36.9448 775.04 44.1365 775.04 53.0078C775.04 61.8792 782.231 69.0708 791.103 69.0708Z" fill="#6C63FF"/>
<path d="M128.32 161.433H126.714V166.252H128.32V161.433Z" fill="#3F3D56"/>
<path d="M128.32 359.008H126.714V349.37H128.32V359.008ZM128.32 339.732H126.714V330.094H128.32V339.732ZM128.32 320.457H126.714V310.819H128.32V320.457ZM128.32 301.181H126.714V291.543H128.32V301.181ZM128.32 281.905H126.714V272.268H128.32V281.905ZM128.32 262.63H126.714V252.992H128.32V262.63ZM128.32 243.354H126.714V233.716H128.32V243.354ZM128.32 224.079H126.714V214.441H128.32V224.079ZM128.32 204.803H126.714V195.165H128.32V204.803ZM128.32 185.527H126.714V175.89H128.32V185.527Z" fill="#3F3D56"/>
<path d="M132.336 374.268H126.714V368.646H128.32V372.661H132.336V374.268Z" fill="#3F3D56"/>
<path d="M868.161 374.268H858.479V372.662H868.161V374.268ZM848.797 374.268H839.115V372.662H848.797V374.268ZM829.434 374.268H819.751V372.662H829.434V374.268ZM810.07 374.268H800.388V372.662H810.07V374.268ZM790.706 374.268H781.024V372.662H790.706V374.268ZM771.342 374.268H761.66V372.662H771.342V374.268ZM751.978 374.268H742.296V372.662H751.978V374.268ZM732.614 374.268H722.932V372.662H732.614V374.268ZM713.251 374.268H703.568V372.662H713.251V374.268ZM693.887 374.268H684.205V372.662H693.887L693.887 374.268ZM674.523 374.268H664.841V372.662H674.523V374.268ZM655.159 374.268H645.477V372.662H655.159V374.268ZM635.795 374.268H626.113V372.662H635.795V374.268ZM616.431 374.268H606.75V372.662H616.431V374.268ZM597.068 374.268H587.385V372.662H597.068V374.268ZM577.704 374.268H568.022V372.662H577.704V374.268ZM558.34 374.268H548.658V372.662H558.34V374.268ZM538.976 374.268H529.294V372.662H538.976V374.268ZM519.612 374.268H509.93V372.662H519.612V374.268ZM500.249 374.268H490.567V372.662H500.249V374.268ZM480.885 374.268H471.203V372.662H480.885V374.268ZM461.521 374.268H451.839V372.662H461.521V374.268ZM442.157 374.268H432.475V372.662H442.157V374.268ZM422.793 374.268H413.111V372.662H422.793V374.268ZM403.43 374.268H393.747V372.662H403.43V374.268ZM384.066 374.268H374.384V372.662H384.066V374.268ZM364.702 374.268H355.02V372.662H364.702V374.268ZM345.338 374.268H335.656V372.662H345.338V374.268ZM325.974 374.268H316.292V372.662H325.974V374.268ZM306.61 374.268H296.928V372.662H306.61V374.268ZM287.247 374.268H277.564V372.662H287.247V374.268ZM267.883 374.268H258.201V372.662H267.883V374.268ZM248.519 374.268H238.837V372.662H248.519V374.268ZM229.155 374.268H219.473V372.662H229.155V374.268ZM209.791 374.268H200.11V372.662H209.791V374.268ZM190.427 374.268H180.746V372.662H190.427V374.268ZM171.064 374.268H161.382V372.662H171.064V374.268ZM151.7 374.268H142.018V372.662H151.7L151.7 374.268Z" fill="#3F3D56"/>
<path d="M883.465 374.268H877.843V372.661H881.858V368.646H883.465V374.268Z" fill="#3F3D56"/>
<path d="M883.465 359.008H881.858V349.37H883.465V359.008ZM883.465 339.732H881.858V330.094H883.465V339.732ZM883.465 320.457H881.858V310.819H883.465V320.457ZM883.465 301.181H881.858V291.543H883.465V301.181ZM883.465 281.905H881.858V272.268H883.465V281.905ZM883.465 262.63H881.858V252.992H883.465V262.63ZM883.465 243.354H881.858V233.716H883.465V243.354ZM883.465 224.079H881.858V214.441H883.465V224.079ZM883.465 204.803H881.858V195.165H883.465V204.803ZM883.465 185.527H881.858V175.89H883.465V185.527Z" fill="#3F3D56"/>
<path d="M883.465 161.433H881.858V166.252H883.465V161.433Z" fill="#3F3D56"/>
<path d="M647.339 325.275H372.662V611.197H647.339V325.275Z" fill="#3F3D56"/>
<path d="M443.339 362.622H393.543V397.961H443.339V362.622Z" fill="white"/>
<path d="M626.457 362.622H489.118V366.638H626.457V362.622Z" fill="white"/>
<path d="M626.457 378.685H489.118V382.701H626.457V378.685Z" fill="white"/>
<path d="M626.457 394.748H489.118V398.764H626.457V394.748Z" fill="white"/>
<path d="M443.339 489.921H393.543V525.26H443.339V489.921Z" fill="white"/>
<path d="M626.457 489.921H489.118V493.937H626.457V489.921Z" fill="white"/>
<path d="M626.457 505.984H489.118V510H626.457V505.984Z" fill="white"/>
<path d="M626.457 522.047H489.118V526.063H626.457V522.047Z" fill="white"/>
<path d="M418.652 389.229L401.607 366.503L405.645 363.475L419.53 381.989L454.923 353.324L458.119 357.23L418.652 389.229Z" fill="#6C63FF"/>
<path d="M418.652 515.324L401.607 492.598L405.645 489.57L419.53 508.083L454.923 479.418L458.119 483.325L418.652 515.324Z" fill="#6C63FF"/>
<path d="M999.118 610.394H7.22852V612H999.118V610.394Z" fill="#3F3D56"/>
<path d="M544.574 170.268C544.574 170.268 571.078 158.719 583.526 170.918C595.975 183.118 550.196 179.102 544.574 170.268Z" fill="#3F3D56"/>
<path d="M590.339 115.497C581.432 100.447 563.811 99.7457 563.811 99.7457C563.811 99.7457 546.64 97.5499 535.625 120.471C525.358 141.835 511.188 162.463 533.343 167.464L537.345 155.008L539.824 168.391C542.978 168.618 546.143 168.672 549.303 168.553C573.03 167.787 595.626 168.777 594.899 160.263C593.931 148.945 598.909 129.978 590.339 115.497Z" fill="#2F2E41"/>
<path d="M602.802 388.323C602.802 388.323 591.558 409.205 584.33 409.205C577.102 409.205 577.905 422.858 579.511 426.071C581.117 429.283 585.133 436.512 578.708 446.953C576.464 450.6 576.865 454.737 578.338 458.576C582.464 469.335 598.516 466.075 598.004 454.564C597.998 454.437 597.992 454.31 597.983 454.181C597.18 441.331 603.606 421.252 610.031 416.433C616.456 411.614 622.078 398.764 622.078 398.764L602.802 388.323Z" fill="#FFB8B8"/>
<path d="M525.7 383.504C525.7 383.504 536.944 404.386 544.172 404.386C551.401 404.386 550.598 418.039 548.991 421.252C547.385 424.464 543.369 431.693 549.794 442.134C552.039 445.781 551.637 449.918 550.164 453.758C546.038 464.516 529.986 461.256 530.498 449.745C530.504 449.618 530.511 449.491 530.519 449.362C531.322 436.512 524.897 416.433 518.472 411.614C512.046 406.795 506.424 393.945 506.424 393.945L525.7 383.504Z" fill="#FFB8B8"/>
<path d="M534.535 280.701L529.716 291.142C529.716 291.142 459.039 314.433 465.464 341.74C471.889 369.047 503.212 411.614 508.031 410.008C512.85 408.402 538.55 403.583 539.353 389.929C540.157 376.276 520.881 352.181 520.881 352.181L547.385 328.087L585.953 327.284L618.865 352.181C618.865 352.181 584.33 382.701 599.59 394.748C614.85 406.795 637.338 414.827 640.55 410.008C643.763 405.189 679.905 333.709 674.283 327.284C668.661 320.858 611.637 296.764 611.637 296.764L596.377 275.079L536.944 271.866L534.535 280.701Z" fill="#2F2E41"/>
<path d="M548.991 148.181C548.991 148.181 553.007 174.685 544.976 177.898C536.944 181.11 561.038 194.764 561.038 194.764H574.692L583.527 176.291C583.527 176.291 575.495 161.835 580.314 148.181C585.133 134.527 548.991 148.181 548.991 148.181Z" fill="#FFB8B8"/>
<path opacity="0.1" d="M548.991 148.181C548.991 148.181 553.007 174.685 544.976 177.898C536.944 181.11 561.038 194.764 561.038 194.764H574.692L583.527 176.291C583.527 176.291 575.495 161.835 580.314 148.181C585.133 134.527 548.991 148.181 548.991 148.181Z" fill="black"/>
<path d="M543.369 170.669C543.369 170.669 552.204 180.307 553.81 181.914C555.417 183.52 562.645 192.354 577.905 179.504C593.165 166.654 594.771 181.914 594.771 181.914V278.292C594.771 278.292 581.921 272.67 571.48 278.292C561.039 283.914 539.354 276.685 539.354 276.685L535.338 177.095L543.369 170.669Z" fill="white"/>
<path d="M549.268 170.669C549.268 170.669 541.763 167.456 535.337 170.669C528.912 173.882 506.424 189.945 508.03 197.173C509.637 204.401 530.519 255 516.062 279.094C501.605 303.189 499.196 309.614 499.196 309.614L534.534 291.141C534.534 291.141 561.841 274.275 559.432 263.834C557.023 253.393 549.268 170.669 549.268 170.669Z" fill="#6C63FF"/>
<path d="M581.127 170.669C581.127 170.669 597.983 172.276 598.786 173.882C599.59 175.488 624.086 182.315 622.479 189.543C620.873 196.772 598.786 261.425 608.424 273.473C618.062 285.52 634.125 302.386 628.503 303.992C622.881 305.599 613.243 301.583 603.605 303.992C593.968 306.402 571.479 286.323 573.889 264.638C576.298 242.953 573.908 176.291 581.127 170.669Z" fill="#6C63FF"/>
<path d="M540.96 324.071V332.102C540.96 332.102 536.944 350.575 549.794 349.772C562.645 348.969 554.613 327.284 554.613 327.284L553.81 320.055L540.96 324.071Z" fill="#FFB8B8"/>
<path d="M577.101 324.874C577.101 324.874 568.267 343.346 577.101 344.953C585.936 346.559 592.361 334.512 592.361 331.299C592.361 328.087 577.101 324.874 577.101 324.874Z" fill="#FFB8B8"/>
<path d="M588.747 140.551C589.634 140.551 590.353 139.113 590.353 137.339C590.353 135.564 589.634 134.126 588.747 134.126C587.86 134.126 587.141 135.564 587.141 137.339C587.141 139.113 587.86 140.551 588.747 140.551Z" fill="#FFB8B8"/>
<path d="M541.361 140.551C542.248 140.551 542.968 139.113 542.968 137.339C542.968 135.564 542.248 134.126 541.361 134.126C540.474 134.126 539.755 135.564 539.755 137.339C539.755 139.113 540.474 140.551 541.361 140.551Z" fill="#FFB8B8"/>
<path d="M602.802 181.11C602.802 181.11 622.881 181.11 622.078 189.142C621.274 197.173 594.771 335.315 594.771 335.315C594.771 335.315 583.526 324.874 573.889 327.284L602.802 181.11Z" fill="#6C63FF"/>
<path d="M524.897 183.52C524.897 183.52 504.818 187.535 504.818 199.583C504.818 211.63 533.731 327.283 537.747 327.283C541.763 327.283 557.023 324.874 557.023 320.858C557.023 316.842 524.897 183.52 524.897 183.52Z" fill="#6C63FF"/>
<path opacity="0.2" d="M529.314 207.212L547.385 277.882C547.385 277.882 538.952 216.047 529.314 207.212Z" fill="black"/>
<path opacity="0.2" d="M599.604 197.283L581.327 289.68C581.327 289.68 587.168 202.613 599.604 197.283Z" fill="black"/>
<path d="M565.054 161.031C577.918 161.031 588.345 150.604 588.345 137.74C588.345 124.877 577.918 114.449 565.054 114.449C552.191 114.449 541.763 124.877 541.763 137.74C541.763 150.604 552.191 161.031 565.054 161.031Z" fill="#FFB8B8"/>
<path d="M586.401 114.046L568.992 104.927L544.951 108.657L539.977 130.626L552.359 130.15L555.818 122.079V130.017L561.531 129.797L564.847 116.947L566.92 130.626L587.23 130.212L586.401 114.046Z" fill="#2F2E41"/>
</svg>
