<svg width="848" height="469" viewBox="0 0 848 469" fill="none" xmlns="http://www.w3.org/2000/svg">
<g clip-path="url(#clip0)">
<path d="M436.356 466.6C422.949 468.574 409.382 469.23 395.848 468.558C363.214 466.909 331.119 457.418 303.691 439.575C291.53 431.663 279.93 421.942 273.635 408.884C265.092 391.151 268.079 368.702 280.28 353.257C284.73 347.686 290.204 343.016 296.407 339.5C297.326 338.98 298.265 338.481 299.215 338.001C309.551 332.804 321.161 330.678 332.668 331.877C352.232 334.015 370.288 345.963 380.72 362.658C390.012 377.544 393.25 395.107 395.158 412.711C395.518 416.027 395.828 419.354 396.127 422.661C394.465 432.242 391.85 441.633 388.324 450.695C388.144 451.136 387.997 451.59 387.884 452.053C389.882 456.389 391.784 460.765 393.589 465.181C395.286 466.102 397.185 466.582 399.115 466.58H436.276L436.356 466.6Z" fill="#F2F2F2"/>
<path d="M392.82 467.449C392.574 467.559 392.308 467.619 392.038 467.625C391.769 467.631 391.5 467.583 391.249 467.485C390.998 467.386 390.769 467.239 390.576 467.051C390.382 466.863 390.228 466.638 390.123 466.39C389.963 466.01 389.813 465.63 389.653 465.251C388.214 461.754 386.705 458.291 385.127 454.861C364.915 410.597 334.767 371.589 297.026 340.868C296.81 340.716 296.639 340.509 296.53 340.269C296.421 340.028 296.378 339.762 296.407 339.5C296.462 339.198 296.584 338.914 296.765 338.666C296.945 338.419 297.179 338.216 297.449 338.072C297.719 337.928 298.018 337.846 298.324 337.834C298.63 337.822 298.934 337.879 299.215 338.001C299.365 338.069 299.506 338.157 299.635 338.261C315.782 351.41 330.595 366.117 343.859 382.169C357.126 398.206 368.809 415.491 378.742 433.781C381.449 438.776 384.021 443.841 386.455 448.976C386.935 449.995 387.415 451.024 387.884 452.053C389.883 456.389 391.784 460.765 393.59 465.181C393.62 465.251 393.65 465.331 393.68 465.401C393.772 465.59 393.822 465.796 393.828 466.006C393.834 466.216 393.795 466.425 393.714 466.619C393.632 466.813 393.51 466.987 393.356 467.13C393.202 467.273 393.019 467.382 392.82 467.449Z" fill="white"/>
<path d="M260.296 335.683C281.818 335.683 299.265 318.239 299.265 296.72C299.265 275.201 281.818 257.757 260.296 257.757C238.774 257.757 221.327 275.201 221.327 296.72C221.327 318.239 238.774 335.683 260.296 335.683Z" fill="#6C63FF"/>
<path d="M256.433 311.584C255.556 311.585 254.703 311.302 254.001 310.776L253.958 310.743L244.8 303.733C244.375 303.408 244.019 303.003 243.751 302.54C243.484 302.078 243.31 301.567 243.239 301.037C243.169 300.507 243.204 299.969 243.342 299.453C243.48 298.936 243.718 298.452 244.043 298.028C244.368 297.604 244.774 297.248 245.236 296.98C245.699 296.713 246.21 296.539 246.74 296.469C247.27 296.399 247.808 296.434 248.324 296.572C248.841 296.711 249.325 296.949 249.749 297.274L255.681 301.822L269.699 283.543C270.024 283.119 270.429 282.764 270.892 282.496C271.354 282.229 271.865 282.056 272.395 281.986C272.925 281.916 273.463 281.951 273.979 282.089C274.495 282.227 274.979 282.465 275.403 282.791L275.316 282.909L275.405 282.792C276.261 283.449 276.82 284.419 276.961 285.488C277.103 286.558 276.814 287.639 276.158 288.496L259.67 309.996C259.289 310.491 258.798 310.892 258.237 311.168C257.675 311.443 257.058 311.585 256.433 311.584Z" fill="white"/>
<path d="M846.81 469H1.18971C0.874773 468.999 0.57305 468.873 0.350676 468.65C0.128301 468.427 0.00341797 468.125 0.00341797 467.81C0.00341797 467.496 0.128301 467.193 0.350676 466.971C0.57305 466.748 0.874773 466.622 1.18971 466.621H846.81C847.125 466.622 847.427 466.748 847.649 466.971C847.872 467.193 847.997 467.496 847.997 467.81C847.997 468.125 847.872 468.427 847.649 468.65C847.427 468.873 847.125 468.999 846.81 469Z" fill="#3F3D56"/>
<path d="M165.414 135.817C181.384 135.817 194.331 122.872 194.331 106.904C194.331 90.9358 181.384 77.9912 165.414 77.9912C149.444 77.9912 136.497 90.9358 136.497 106.904C136.497 122.872 149.444 135.817 165.414 135.817Z" fill="#2F2E41"/>
<path d="M142.843 91.3148C147.516 86.6427 148.463 80.0145 144.958 76.5103C141.453 73.0062 134.824 73.9531 130.151 78.6253C125.479 83.2974 124.532 89.9256 128.036 93.4298C131.541 96.9339 138.17 95.987 142.843 91.3148Z" fill="#2F2E41"/>
<path d="M195.553 82.1332C197.5 77.576 194.152 71.7775 188.075 69.1819C181.998 66.5863 175.493 68.1765 173.546 72.7338C171.599 77.291 174.947 83.0895 181.024 85.6851C187.101 88.2806 193.606 86.6904 195.553 82.1332Z" fill="#2F2E41"/>
<path d="M245.935 273.829C246.666 272.44 247.083 270.908 247.158 269.341C247.232 267.774 246.962 266.209 246.367 264.757C245.771 263.306 244.864 262.003 243.71 260.939C242.556 259.876 241.183 259.079 239.688 258.603L197.905 170.228L178.792 183.628L225.873 266.285C225.241 268.85 225.572 271.557 226.803 273.895C228.034 276.232 230.08 278.036 232.553 278.966C235.026 279.896 237.754 279.887 240.221 278.94C242.687 277.993 244.72 276.174 245.935 273.829V273.829Z" fill="#FFB8B8"/>
<path d="M207.487 184.972L185.296 194.893C184.664 195.176 183.98 195.318 183.288 195.312C182.596 195.306 181.914 195.151 181.288 194.857C180.662 194.564 180.106 194.139 179.659 193.611C179.212 193.083 178.884 192.466 178.697 191.8L172.153 168.469C170.727 165.231 170.643 161.559 171.92 158.26C173.197 154.96 175.731 152.301 178.966 150.866C182.2 149.431 185.872 149.338 189.176 150.605C192.479 151.873 195.145 154.399 196.589 157.629L209.58 177.992C209.952 178.575 210.194 179.231 210.289 179.916C210.384 180.601 210.331 181.299 210.132 181.961C209.933 182.624 209.594 183.235 209.138 183.755C208.681 184.274 208.118 184.689 207.487 184.972Z" fill="#CCCCCC"/>
<path d="M105.001 282.59C106.529 282.235 107.962 281.549 109.196 280.581C110.431 279.613 111.439 278.386 112.148 276.986C112.857 275.587 113.251 274.048 113.301 272.48C113.352 270.912 113.057 269.352 112.44 267.91L152.01 178.522L129.374 172.821L97.595 262.479C95.2405 263.678 93.4076 265.698 92.4435 268.157C91.4793 270.617 91.451 273.345 92.3639 275.824C93.2768 278.302 95.0674 280.361 97.3965 281.608C99.7256 282.855 102.431 283.204 105.001 282.59H105.001Z" fill="#FFB8B8"/>
<path d="M94.2139 444.613L105.725 448.803L127.368 406.405L110.379 400.221L94.2139 444.613Z" fill="#FFB8B8"/>
<path d="M124.032 467.572L87.8555 454.402L92.9447 440.427L115.144 448.509C118.851 449.858 121.87 452.625 123.537 456.2C125.204 459.775 125.382 463.866 124.032 467.572Z" fill="#2F2E41"/>
<path d="M121.441 420.214C120.735 420.215 120.037 420.058 119.399 419.756L106.17 413.491C105.085 412.982 104.231 412.085 103.774 410.978C103.318 409.87 103.293 408.632 103.703 407.507L141.037 304.136C141.347 303.28 141.892 302.529 142.611 301.971C143.33 301.412 144.193 301.069 145.099 300.981C146.005 300.893 146.917 301.064 147.73 301.474C148.543 301.883 149.223 302.515 149.691 303.296L169.438 336.202C169.877 336.935 170.114 337.772 170.123 338.626C170.132 339.481 169.914 340.323 169.49 341.065L125.638 417.795C125.213 418.531 124.601 419.143 123.864 419.568C123.127 419.993 122.292 420.216 121.441 420.214Z" fill="#2F2E41"/>
<path d="M166.331 138.344C179.885 138.344 190.873 127.358 190.873 113.806C190.873 100.254 179.885 89.2681 166.331 89.2681C152.777 89.2681 141.79 100.254 141.79 113.806C141.79 127.358 152.777 138.344 166.331 138.344Z" fill="#FFB8B8"/>
<path d="M201.05 225.37L157.597 213.422L134.486 167.207C133.376 164.987 132.851 162.52 132.963 160.04C133.075 157.56 133.818 155.15 135.124 153.039C136.429 150.927 138.252 149.184 140.42 147.975C142.589 146.767 145.03 146.132 147.513 146.132H182.085C185.673 146.13 189.136 147.454 191.807 149.85C201.081 158.157 220.565 182.105 201.238 224.953L201.05 225.37Z" fill="#CCCCCC"/>
<path d="M146.654 194.508L124.638 184.205C124.011 183.911 123.455 183.487 123.008 182.959C122.561 182.432 122.232 181.815 122.045 181.149C121.858 180.483 121.816 179.785 121.923 179.102C122.03 178.418 122.283 177.766 122.665 177.19L136.045 156.986C137.563 153.79 140.287 151.327 143.619 150.136C146.952 148.946 150.62 149.124 153.82 150.634C157.021 152.143 159.492 154.86 160.692 158.188C161.893 161.516 161.724 165.184 160.224 168.389L153.305 191.53C153.107 192.192 152.768 192.804 152.312 193.324C151.856 193.844 151.293 194.259 150.662 194.542C150.03 194.825 149.346 194.968 148.654 194.962C147.962 194.956 147.28 194.802 146.654 194.508Z" fill="#CCCCCC"/>
<path d="M173.29 456.198H185.539L191.368 408.955L173.287 408.956L173.29 456.198Z" fill="#FFB8B8"/>
<path d="M209.165 467.571L170.665 467.572L170.664 452.7L194.289 452.698C198.234 452.698 202.018 454.265 204.808 457.054C207.598 459.843 209.165 463.626 209.165 467.571Z" fill="#2F2E41"/>
<path d="M177.915 438.196C176.814 438.197 175.745 437.819 174.89 437.125C174.035 436.431 173.446 435.463 173.221 434.385C169.7 417.797 151.412 332.829 137.139 289.063C122.616 244.535 147.349 224.253 152.454 220.639C152.998 220.255 153.43 219.734 153.706 219.128L157.415 210.97C157.8 210.128 158.419 209.414 159.198 208.913C159.977 208.412 160.883 208.146 161.809 208.146H161.839C189.646 208.312 198.994 217.076 201.722 220.837C202.124 221.397 202.4 222.038 202.53 222.715C202.66 223.393 202.641 224.09 202.475 224.759L184.881 297.336C184.772 297.786 184.747 298.252 184.808 298.711L202.313 430.486C202.397 431.12 202.354 431.764 202.187 432.38C202.019 432.997 201.731 433.574 201.338 434.078C200.945 434.582 200.456 435.003 199.899 435.316C199.342 435.629 198.728 435.828 198.093 435.901L178.48 438.163C178.293 438.185 178.104 438.196 177.915 438.196Z" fill="#2F2E41"/>
<path d="M140.544 98.3719C146.152 102.237 152.808 104.293 159.619 104.266C157.19 105.951 154.424 107.088 151.512 107.601C160.568 109.543 169.927 109.596 179.004 107.755C181.022 107.432 182.969 106.763 184.76 105.779C185.652 105.281 186.429 104.6 187.041 103.782C187.653 102.964 188.086 102.026 188.312 101.029C188.915 97.5836 186.23 94.4535 183.44 92.344C179.168 89.1634 174.242 86.9721 169.019 85.9286C163.796 84.885 158.406 85.0153 153.239 86.31C149.866 87.1819 146.486 88.655 144.295 91.3639C142.104 94.0727 141.455 98.2489 143.542 101.038L140.544 98.3719Z" fill="#2F2E41"/>
<path d="M591.033 204.807C598.207 204.807 604.022 198.992 604.022 191.819C604.022 184.646 598.207 178.831 591.033 178.831C583.859 178.831 578.043 184.646 578.043 191.819C578.043 198.992 583.859 204.807 591.033 204.807Z" fill="#6C63FF"/>
<path d="M589.745 196.773C589.453 196.774 589.168 196.679 588.934 196.504L588.92 196.493L585.867 194.156C585.725 194.048 585.606 193.913 585.516 193.759C585.427 193.605 585.369 193.434 585.345 193.258C585.321 193.081 585.333 192.901 585.379 192.729C585.425 192.556 585.504 192.395 585.613 192.253C585.721 192.112 585.857 191.993 586.011 191.904C586.165 191.814 586.336 191.757 586.513 191.733C586.69 191.71 586.87 191.722 587.042 191.769C587.214 191.815 587.375 191.895 587.517 192.004L589.494 193.52L594.167 187.427C594.275 187.285 594.41 187.167 594.564 187.078C594.719 186.989 594.889 186.931 595.065 186.907C595.242 186.884 595.421 186.896 595.593 186.942C595.766 186.988 595.927 187.067 596.068 187.176L596.039 187.215L596.069 187.176C596.354 187.395 596.541 187.719 596.588 188.075C596.635 188.431 596.538 188.792 596.32 189.077L590.824 196.244C590.697 196.409 590.533 196.543 590.346 196.635C590.159 196.727 589.953 196.774 589.745 196.773Z" fill="white"/>
<path d="M591.033 242.771C598.207 242.771 604.022 236.956 604.022 229.783C604.022 222.61 598.207 216.795 591.033 216.795C583.859 216.795 578.043 222.61 578.043 229.783C578.043 236.956 583.859 242.771 591.033 242.771Z" fill="#6C63FF"/>
<path d="M589.745 234.738C589.453 234.738 589.168 234.644 588.934 234.468L588.92 234.457L585.867 232.121C585.725 232.012 585.606 231.877 585.516 231.723C585.427 231.569 585.369 231.399 585.345 231.222C585.321 231.045 585.333 230.865 585.379 230.693C585.425 230.521 585.504 230.359 585.613 230.217C585.721 230.076 585.857 229.957 586.011 229.868C586.165 229.779 586.336 229.721 586.513 229.698C586.69 229.674 586.87 229.686 587.042 229.733C587.214 229.779 587.375 229.859 587.517 229.968L589.494 231.484L594.167 225.391C594.275 225.249 594.41 225.131 594.564 225.042C594.719 224.953 594.889 224.895 595.065 224.872C595.242 224.848 595.421 224.86 595.593 224.906C595.766 224.952 595.927 225.031 596.068 225.14L596.039 225.179L596.069 225.14C596.354 225.359 596.541 225.683 596.588 226.039C596.635 226.396 596.538 226.756 596.32 227.042L590.824 234.208C590.697 234.373 590.533 234.507 590.346 234.599C590.159 234.691 589.953 234.738 589.745 234.738Z" fill="white"/>
<path d="M598.027 286.729C605.201 286.729 611.016 280.915 611.016 273.742C611.016 266.569 605.201 260.754 598.027 260.754C590.853 260.754 585.037 266.569 585.037 273.742C585.037 280.915 590.853 286.729 598.027 286.729Z" fill="#6C63FF"/>
<path d="M596.739 278.696C596.447 278.697 596.162 278.602 595.928 278.427L595.914 278.416L592.861 276.079C592.719 275.971 592.6 275.836 592.511 275.682C592.421 275.528 592.363 275.357 592.339 275.18C592.315 275.004 592.327 274.824 592.373 274.652C592.419 274.479 592.498 274.318 592.607 274.176C592.715 274.034 592.851 273.916 593.005 273.827C593.16 273.737 593.33 273.679 593.507 273.656C593.684 273.633 593.864 273.645 594.036 273.691C594.208 273.738 594.37 273.818 594.511 273.926L596.488 275.442L601.161 269.35C601.269 269.208 601.404 269.09 601.559 269.001C601.713 268.911 601.883 268.854 602.06 268.83C602.236 268.807 602.416 268.819 602.588 268.865C602.76 268.911 602.921 268.99 603.062 269.099L603.033 269.138L603.063 269.099C603.348 269.318 603.535 269.641 603.582 269.998C603.629 270.354 603.533 270.715 603.314 271L597.818 278.167C597.691 278.332 597.527 278.466 597.34 278.558C597.153 278.649 596.947 278.697 596.739 278.696Z" fill="white"/>
<path d="M654.252 335.563C629.441 231.392 650.135 139.348 660.187 104.621C660.785 102.54 660.892 100.347 660.498 98.2176C660.105 96.0877 659.221 94.0785 657.918 92.3483C656.615 90.6181 654.928 89.2143 652.989 88.2477C651.05 87.281 648.914 86.7779 646.748 86.7781H405.9C403.695 86.7802 401.521 87.3025 399.556 88.3024C397.59 89.3023 395.888 90.7516 394.589 92.5327C384.866 105.9 364.692 150.228 387.225 272.882C399.275 338.5 399.095 383.238 395.158 412.71C392.95 429.305 389.543 441.054 386.455 448.976L386.126 449.815C385.475 451.419 385.136 453.131 385.126 454.861C385.104 456.814 385.495 458.75 386.275 460.541C387.056 462.332 388.207 463.937 389.653 465.251C390.595 466.134 391.662 466.875 392.82 467.449C393.781 467.939 394.798 468.311 395.848 468.558C396.917 468.819 398.014 468.95 399.115 468.947H636.246C636.276 468.947 636.356 468.957 636.496 468.957C638.015 468.957 645.939 468.518 653.123 459.866C664.014 446.748 673.057 414.539 654.252 335.563ZM651.364 458.257C644.32 466.809 636.676 466.59 636.306 466.58H399.115C397.216 466.579 395.346 466.113 393.669 465.223C391.991 464.333 390.558 463.046 389.492 461.474C388.556 460.115 387.926 458.568 387.649 456.941C387.371 455.314 387.451 453.646 387.884 452.053C387.997 451.59 388.144 451.136 388.324 450.695C391.85 441.633 394.465 432.242 396.127 422.661C401.763 391.94 402.812 344.535 389.563 272.453C367.201 150.708 386.975 107.049 396.507 93.9313C397.588 92.4547 399.002 91.253 400.634 90.4234C402.265 89.5939 404.069 89.1597 405.9 89.1558H646.748C648.544 89.1546 650.317 89.5709 651.925 90.372C653.534 91.1731 654.934 92.337 656.015 93.7719C657.097 95.2068 657.83 96.8733 658.157 98.64C658.484 100.407 658.395 102.225 657.899 103.952C647.797 138.869 627.004 231.392 651.944 336.113C670.489 413.989 661.866 445.519 651.364 458.257Z" fill="#3F3D56"/>
<path d="M539.833 200.211H415.746C413.223 200.211 410.804 199.209 409.02 197.426C407.236 195.642 406.234 193.224 406.234 190.701C406.234 188.179 407.236 185.76 409.02 183.977C410.804 182.194 413.223 181.192 415.746 181.192H539.833C542.355 181.192 544.774 182.194 546.558 183.977C548.342 185.76 549.344 188.179 549.344 190.701C549.344 193.224 548.342 195.642 546.558 197.426C544.774 199.209 542.355 200.211 539.833 200.211Z" fill="#CCCCCC"/>
<path d="M539.833 241.173H415.746C413.223 241.173 410.804 240.171 409.02 238.387C407.236 236.604 406.234 234.185 406.234 231.663C406.234 229.141 407.236 226.722 409.02 224.938C410.804 223.155 413.223 222.153 415.746 222.153H539.833C542.355 222.153 544.774 223.155 546.558 224.938C548.342 226.722 549.344 229.141 549.344 231.663C549.344 234.185 548.342 236.604 546.558 238.387C544.774 240.171 542.355 241.173 539.833 241.173Z" fill="#CCCCCC"/>
<path d="M549.824 283.133H425.737C423.215 283.133 420.796 282.131 419.012 280.348C417.228 278.564 416.226 276.145 416.226 273.623C416.226 271.101 417.228 268.682 419.012 266.899C420.796 265.115 423.215 264.114 425.737 264.114H549.824C552.347 264.114 554.766 265.115 556.55 266.899C558.334 268.682 559.336 271.101 559.336 273.623C559.336 276.145 558.334 278.564 556.55 280.348C554.766 282.131 552.347 283.133 549.824 283.133Z" fill="#CCCCCC"/>
<path d="M556.819 327.092H432.732C430.209 327.092 427.79 326.09 426.006 324.306C424.223 322.523 423.221 320.104 423.221 317.582C423.221 315.06 424.223 312.641 426.006 310.857C427.79 309.074 430.209 308.072 432.732 308.072H556.819C559.342 308.072 561.761 309.074 563.544 310.857C565.328 312.641 566.33 315.06 566.33 317.582C566.33 320.104 565.328 322.523 563.544 324.306C561.761 326.09 559.342 327.092 556.819 327.092Z" fill="#CCCCCC"/>
<path d="M556.872 126.371H467.704C466.454 126.372 465.216 126.127 464.061 125.65C462.906 125.173 461.857 124.472 460.972 123.589C460.088 122.706 459.387 121.657 458.908 120.503C458.429 119.348 458.183 118.111 458.183 116.861C458.183 115.612 458.429 114.374 458.908 113.22C459.387 112.065 460.088 111.017 460.972 110.133C461.857 109.25 462.906 108.55 464.061 108.073C465.216 107.595 466.454 107.35 467.704 107.352H556.872C559.394 107.352 561.813 108.353 563.597 110.137C565.381 111.92 566.383 114.339 566.383 116.861C566.383 119.384 565.381 121.802 563.597 123.586C561.813 125.369 559.394 126.371 556.872 126.371Z" fill="#6C63FF"/>
<path d="M606.02 330.57C613.194 330.57 619.01 324.755 619.01 317.582C619.01 310.409 613.194 304.594 606.02 304.594C598.846 304.594 593.031 310.409 593.031 317.582C593.031 324.755 598.846 330.57 606.02 330.57Z" fill="#CCCCCC"/>
<path d="M562.814 370.051H438.727C436.204 370.051 433.785 369.049 432.002 367.266C430.218 365.482 429.216 363.063 429.216 360.541C429.216 358.019 430.218 355.6 432.002 353.817C433.785 352.033 436.204 351.031 438.727 351.031H562.814C565.337 351.031 567.756 352.033 569.54 353.817C571.323 355.6 572.325 358.019 572.325 360.541C572.325 363.063 571.323 365.482 569.54 367.266C567.756 369.049 565.337 370.051 562.814 370.051Z" fill="#CCCCCC"/>
<path d="M612.016 373.529C619.19 373.529 625.005 367.714 625.005 360.541C625.005 353.368 619.19 347.553 612.016 347.553C604.842 347.553 599.026 353.368 599.026 360.541C599.026 367.714 604.842 373.529 612.016 373.529Z" fill="#CCCCCC"/>
</g>
<defs>
<clipPath id="clip0">
<rect width="848" height="469" fill="white"/>
</clipPath>
</defs>
</svg>
