<svg width="574" height="538" viewBox="0 0 574 538" fill="none" xmlns="http://www.w3.org/2000/svg">
<g clip-path="url(#clip0)">
<path d="M457.17 382.242C457.17 382.242 528.182 385.921 511.642 408.324C495.102 430.727 451.64 395.182 451.64 395.182L457.17 382.242Z" fill="#FFB8B8"/>
<path d="M326.308 168.858L340.762 172.479C340.762 172.479 349.194 197.829 355.216 220.764C361.239 243.699 373.284 312.505 373.284 312.505L466.666 378.092L455.528 403.061L331.127 353.926L303.423 244.907L326.308 168.858Z" fill="#575A89"/>
<path opacity="0.2" d="M339.908 213.854L334.521 326.913L345.762 360.527L312.833 336.326L339.908 213.854Z" fill="black"/>
<path d="M359.432 414.507C359.432 414.507 375.091 456.756 377.5 485.727C379.909 514.698 382.318 537.633 382.318 537.633H308.843L294.389 515.905V537.633H208.869C208.869 537.633 184.779 459.171 194.415 449.514C204.051 439.857 295.593 398.814 295.593 398.814L359.432 414.507Z" fill="#2F2E41"/>
<path d="M499.434 536.533H74.2749V538H499.434V536.533Z" fill="#3F3D56"/>
<path d="M267.288 122.987C292.566 122.987 313.059 102.45 313.059 77.1167C313.059 51.7831 292.566 31.2461 267.288 31.2461C242.009 31.2461 221.517 51.7831 221.517 77.1167C221.517 102.45 242.009 122.987 267.288 122.987Z" fill="#FFB8B8"/>
<path d="M232.357 96.4307L228.744 149.544L274.515 211.107L297.4 153.165C297.4 153.165 276.924 139.887 288.969 112.123L232.357 96.4307Z" fill="#FFB8B8"/>
<path d="M366.054 424.767C366.054 435.635 335.942 452.532 335.942 452.532V458.567L323.897 464.603L297.399 411.493L290.177 469.428C290.177 469.428 237.174 477.884 220.314 469.428C203.447 460.98 195.017 464.603 170.927 456.155C146.837 447.706 180.565 334.233 180.565 334.233L156.475 159.201L209.104 132.829L211.877 131.436L219.114 130.101L230.208 128.048L267.287 153.166L270.272 168.86L272.109 178.518L281.739 167.649L289.013 143.676L340.764 172.482L326.311 288.361C326.311 288.361 366.054 413.905 366.054 424.767Z" fill="#575A89"/>
<path d="M188.995 462.188C188.995 462.188 244.402 506.852 217.903 515.302C191.404 523.752 176.95 469.431 176.95 469.431L188.995 462.188Z" fill="#FFB8B8"/>
<path d="M168.519 161.615L156.474 159.201C156.474 159.201 138.406 168.858 137.202 188.172C135.997 207.486 120.339 342.683 120.339 342.683L170.928 479.088L211.881 463.396L172.132 335.441L202.245 224.386L168.519 161.615Z" fill="#575A89"/>
<path d="M272.585 198.453C275.01 198.453 276.976 196.483 276.976 194.053C276.976 191.622 275.01 189.652 272.585 189.652C270.16 189.652 268.194 191.622 268.194 194.053C268.194 196.483 270.16 198.453 272.585 198.453Z" fill="#2F2E41"/>
<path d="M272.585 227.054C275.01 227.054 276.976 225.084 276.976 222.654C276.976 220.224 275.01 218.254 272.585 218.254C270.16 218.254 268.194 220.224 268.194 222.654C268.194 225.084 270.16 227.054 272.585 227.054Z" fill="#2F2E41"/>
<path d="M297.465 415.528C299.89 415.528 301.856 413.558 301.856 411.128C301.856 408.698 299.89 406.728 297.465 406.728C295.04 406.728 293.075 408.698 293.075 411.128C293.075 413.558 295.04 415.528 297.465 415.528Z" fill="#2F2E41"/>
<path d="M228.644 30.1244L220.183 26.7297C220.183 26.7297 237.874 7.21026 262.488 8.90765L255.565 1.26957C255.565 1.26957 272.487 -5.51972 287.871 12.3023C295.958 21.6709 305.315 32.6833 311.147 45.0885H320.209L316.427 53.4337L329.663 61.7789L316.077 60.2799C316.887 64.8499 317.011 69.5153 316.446 74.122C315.863 78.7301 313.517 82.9311 309.902 85.8382C309.902 85.8382 299.409 64.071 299.409 60.6763V69.1631C299.409 69.1631 290.948 61.5251 290.948 56.4331L286.332 62.3738H255.565L260.18 54.7358L242.489 57.2817L249.412 47.9463L222.021 86.4955C222.021 86.4955 206.337 42.8543 228.644 30.1244Z" fill="#2F2E41"/>
<path d="M500.823 354.614C541.237 354.614 574 321.78 574 281.278C574 240.775 541.237 207.941 500.823 207.941C460.408 207.941 427.646 240.775 427.646 281.278C427.646 321.78 460.408 354.614 500.823 354.614Z" fill="#3F3D56"/>
<path opacity="0.1" d="M500.823 344.347C535.58 344.347 563.755 316.11 563.755 281.278C563.755 246.446 535.58 218.208 500.823 218.208C466.066 218.208 437.891 246.446 437.891 281.278C437.891 316.11 466.066 344.347 500.823 344.347Z" fill="black"/>
<path d="M497.807 318.495V309.315C493.177 309.225 488.387 307.588 485.593 305.316L487.509 299.227C490.829 301.72 494.856 303.089 499.005 303.134C504.673 303.134 508.505 299.408 508.505 294.228C508.505 289.229 505.391 286.139 499.484 283.412C491.341 279.777 486.312 275.596 486.312 267.689C486.312 260.145 491.022 254.419 498.366 253.056V243.876H503.316V252.693C507.006 252.743 510.606 253.846 513.694 255.873L511.698 261.872C508.737 259.841 505.228 258.763 501.639 258.782C495.492 258.782 493.177 262.962 493.177 266.598C493.177 271.324 496.131 273.687 503.076 276.959C511.299 280.777 515.45 285.503 515.45 293.591C515.45 300.771 511.059 307.497 502.837 309.042V318.495H497.807Z" fill="#6C63FF"/>
<path opacity="0.2" d="M182.947 370.253L212.214 461.874L188.797 366.537L182.947 370.253Z" fill="black"/>
<path d="M33.7298 191.264H15.1526C14.3429 191.263 13.5666 190.94 12.9941 190.366C12.4216 189.793 12.0995 189.015 12.0986 188.203V161.44C12.0995 160.629 12.4216 159.851 12.9941 159.277C13.5666 158.704 14.3429 158.381 15.1526 158.38H33.7298C34.5395 158.381 35.3158 158.704 35.8883 159.277C36.4608 159.851 36.7829 160.629 36.7838 161.44V188.203C36.7829 189.015 36.4608 189.793 35.8883 190.366C35.3158 190.94 34.5395 191.263 33.7298 191.264ZM15.1526 159.847C14.7309 159.847 14.3267 160.015 14.0286 160.314C13.7304 160.613 13.5627 161.018 13.5622 161.44V188.203C13.5627 188.626 13.7304 189.031 14.0286 189.33C14.3267 189.628 14.7309 189.797 15.1526 189.797H33.7298C34.1515 189.797 34.5557 189.628 34.8539 189.33C35.152 189.031 35.3197 188.626 35.3202 188.203V161.44C35.3197 161.018 35.152 160.613 34.8539 160.314C34.5557 160.015 34.1515 159.847 33.7298 159.847H15.1526Z" fill="#3F3D56"/>
<path d="M67.6619 191.264H50.8855C49.8371 191.263 48.832 190.845 48.0907 190.102C47.3494 189.359 46.9324 188.351 46.9312 187.301V133.253C46.9324 132.202 47.3494 131.195 48.0907 130.452C48.832 129.709 49.8371 129.291 50.8855 129.29H67.6619C68.7103 129.291 69.7154 129.709 70.4567 130.452C71.1981 131.195 71.6151 132.202 71.6163 133.253V187.301C71.6151 188.351 71.1981 189.359 70.4567 190.102C69.7154 190.845 68.7103 191.263 67.6619 191.264ZM50.8855 130.756C50.2251 130.757 49.592 131.02 49.125 131.488C48.6581 131.956 48.3954 132.591 48.3947 133.252V187.301C48.3954 187.963 48.6581 188.597 49.125 189.065C49.592 189.533 50.2251 189.796 50.8855 189.797H67.6619C68.3223 189.796 68.9554 189.533 69.4224 189.065C69.8894 188.597 70.152 187.963 70.1528 187.301V133.253C70.152 132.591 69.8894 131.956 69.4224 131.488C68.9554 131.02 68.3223 130.757 67.6619 130.756L50.8855 130.756Z" fill="#3F3D56"/>
<path d="M101.846 191.263H86.3653C85.1452 191.262 83.9754 190.776 83.1127 189.911C82.2499 189.046 81.7646 187.874 81.7632 186.651V107.139C81.7646 105.916 82.2499 104.743 83.1127 103.879C83.9754 103.014 85.1452 102.528 86.3653 102.526H101.846C103.066 102.528 104.236 103.014 105.099 103.879C105.962 104.743 106.447 105.916 106.448 107.139V186.651C106.447 187.874 105.962 189.046 105.099 189.911C104.236 190.776 103.066 191.262 101.846 191.263ZM86.3653 103.993C85.5332 103.994 84.7354 104.326 84.147 104.915C83.5586 105.505 83.2277 106.305 83.2267 107.139V186.651C83.2277 187.485 83.5586 188.285 84.147 188.874C84.7354 189.464 85.5332 189.796 86.3653 189.797H101.846C102.678 189.796 103.476 189.464 104.064 188.874C104.653 188.285 104.984 187.485 104.985 186.651V107.139C104.984 106.305 104.653 105.505 104.064 104.915C103.476 104.326 102.678 103.994 101.846 103.993H86.3653Z" fill="#3F3D56"/>
<path d="M31.4075 163.477H17.4746V186.167H31.4075V163.477Z" fill="#6C63FF"/>
<path d="M66.2401 134.677H52.3071V186.167H66.2401V134.677Z" fill="#6C63FF"/>
<path d="M101.072 107.915H87.1392V186.167H101.072V107.915Z" fill="#6C63FF"/>
<path d="M529.071 106.927H431.745C431.649 106.927 431.554 106.908 431.465 106.871C431.377 106.834 431.296 106.78 431.228 106.712C431.16 106.644 431.106 106.563 431.069 106.474C431.033 106.385 431.014 106.29 431.014 106.193V7.18942C431.014 6.99492 431.091 6.80838 431.228 6.67085C431.365 6.53332 431.551 6.45605 431.745 6.45605C431.94 6.45605 432.126 6.53332 432.263 6.67085C432.4 6.80838 432.477 6.99492 432.477 7.18942V105.46H529.071C529.265 105.46 529.451 105.537 529.588 105.675C529.726 105.812 529.803 105.999 529.803 106.193C529.803 106.388 529.726 106.574 529.588 106.712C529.451 106.85 529.265 106.927 529.071 106.927Z" fill="#3F3D56"/>
<path d="M116.352 201.531H0.731772C0.635667 201.531 0.540501 201.512 0.451707 201.475C0.362914 201.438 0.282231 201.384 0.214275 201.316C0.146318 201.248 0.0924172 201.167 0.0556511 201.078C0.018885 200.989 -2.49722e-05 200.893 2.47501e-08 200.797V85.6591C2.47501e-08 85.4646 0.0770966 85.2781 0.21433 85.1406C0.351564 85.003 0.537694 84.9258 0.731772 84.9258C0.92585 84.9258 1.11198 85.003 1.24921 85.1406C1.38645 85.2781 1.46354 85.4646 1.46354 85.6591V200.064H116.352C116.546 200.064 116.732 200.141 116.869 200.279C117.006 200.416 117.083 200.603 117.083 200.797C117.083 200.992 117.006 201.178 116.869 201.316C116.732 201.453 116.546 201.531 116.352 201.531Z" fill="#3F3D56"/>
<path d="M465.332 97.7357H446.755C445.945 97.7349 445.169 97.4122 444.596 96.8384C444.024 96.2646 443.702 95.4866 443.701 94.6751V67.9124C443.702 67.1009 444.024 66.3229 444.596 65.7491C445.169 65.1753 445.945 64.8526 446.755 64.8518H465.332C466.142 64.8528 466.918 65.1756 467.491 65.7493C468.063 66.3231 468.385 67.101 468.386 67.9124V94.6752C468.385 95.4865 468.063 96.2644 467.491 96.8382C466.918 97.4119 466.142 97.7347 465.332 97.7357ZM446.755 66.3185C446.333 66.319 445.929 66.4871 445.631 66.7859C445.333 67.0847 445.165 67.4898 445.164 67.9124V94.6752C445.165 95.0978 445.333 95.5029 445.631 95.8016C445.929 96.1004 446.333 96.2685 446.755 96.269H465.332C465.754 96.2685 466.158 96.1004 466.456 95.8016C466.754 95.5028 466.922 95.0977 466.922 94.6752V67.9124C466.922 67.4899 466.754 67.0848 466.456 66.786C466.158 66.4872 465.754 66.3191 465.332 66.3185H446.755Z" fill="#3F3D56"/>
<path d="M503.377 97.7358H486.278C485.272 97.7346 484.308 97.3336 483.597 96.6209C482.886 95.9082 482.486 94.9418 482.485 93.9339V45.4589C482.486 44.4511 482.886 43.4848 483.597 42.7721C484.308 42.0594 485.272 41.6586 486.278 41.6575H503.377C504.382 41.6586 505.347 42.0594 506.058 42.7721C506.769 43.4848 507.169 44.4511 507.17 45.4589V93.9339C507.169 94.9418 506.769 95.9082 506.058 96.6209C505.347 97.3336 504.383 97.7346 503.377 97.7358ZM486.278 43.1242C485.66 43.1249 485.068 43.371 484.631 43.8087C484.195 44.2465 483.949 44.8399 483.948 45.4589V93.9339C483.949 94.553 484.195 95.1466 484.631 95.5843C485.068 96.0221 485.66 96.2684 486.278 96.269H503.377C503.995 96.2684 504.587 96.0221 505.023 95.5843C505.46 95.1466 505.706 94.553 505.706 93.9339V45.4589C505.706 44.8399 505.46 44.2465 505.023 43.8088C504.587 43.3711 503.994 43.1249 503.377 43.1242H486.278Z" fill="#3F3D56"/>
<path d="M462.676 70.2026H448.743V92.8929H462.676V70.2026Z" fill="#6C63FF"/>
<path d="M501.794 47.7456H487.861V91.6474H501.794V47.7456Z" fill="#6C63FF"/>
<path d="M455.894 57.058C459.531 57.058 462.479 54.1029 462.479 50.4577C462.479 46.8125 459.531 43.8574 455.894 43.8574C452.256 43.8574 449.308 46.8125 449.308 50.4577C449.308 54.1029 452.256 57.058 455.894 57.058Z" fill="#6C63FF"/>
<path d="M494.678 32.1236C498.315 32.1236 501.264 29.1686 501.264 25.5234C501.264 21.8781 498.315 18.9231 494.678 18.9231C491.04 18.9231 488.092 21.8781 488.092 25.5234C488.092 29.1686 491.04 32.1236 494.678 32.1236Z" fill="#6C63FF"/>
</g>
<defs>
<clipPath id="clip0">
<rect width="574" height="538" fill="white"/>
</clipPath>
</defs>
</svg>
